<?xml version="1.0" encoding="UTF-8"?>
<svg version="1.1" xmlns="http://www.w3.org/2000/svg" width="500" height="500">
<path d="M0 0 C1.80017578 0.58007812 1.80017578 0.58007812 3.63671875 1.171875 C20.93236348 6.62534602 38.13546189 9.98468338 56.19140625 11.60546875 C58.97121168 11.89342808 61.33541824 12.28114997 64 13 C63.80664062 14.22332031 63.61328125 15.44664062 63.4140625 16.70703125 C61.58851178 28.45160321 60.16498788 40.17089231 59 52 C47.78 52.33 36.56 52.66 25 53 C25 55.64 25 58.28 25 61 C25.86238281 60.98839844 26.72476563 60.97679687 27.61328125 60.96484375 C38.1067444 60.88727855 48.52706086 61.36869258 59 62 C59.75712312 66.018118 60.11233839 69.78825175 60.0625 73.875 C60.05347656 74.84179688 60.04445313 75.80859375 60.03515625 76.8046875 C60.02355469 77.52914062 60.01195312 78.25359375 60 79 C60.66 79 61.32 79 62 79 C62.01417969 79.79019531 62.02835937 80.58039063 62.04296875 81.39453125 C62.46606848 91.40026818 64.73609512 100.3666624 67.47265625 109.953125 C68 112 68 112 68.53125 115.5 C68.6859375 116.325 68.840625 117.15 69 118 C69.66 118.33 70.32 118.66 71 119 C71.625 121.5625 71.625 121.5625 72 124 C74.64 123.67 77.28 123.34 80 123 C80.19156526 117.89849977 80.19156526 117.89849977 77 109 C87.23 109 97.46 109 108 109 C108.495 117.415 108.495 117.415 109 126 C113.455 125.505 113.455 125.505 118 125 C118.33 119.72 118.66 114.44 119 109 C129.23 109 139.46 109 150 109 C149.67 112.63 149.34 116.26 149 120 C148.34 120 147.68 120 147 120 C146.67 121.32 146.34 122.64 146 124 C148.97 124.99 151.94 125.98 155 127 C157.77165547 118.02511563 160.15665911 108.99809081 162.125 99.8125 C163 96 163 96 164 95 C164.28612701 93.41525337 164.51506075 91.82009208 164.71875 90.22265625 C164.84636719 89.23330078 164.97398437 88.24394531 165.10546875 87.22460938 C165.23566406 86.18111328 165.36585938 85.13761719 165.5 84.0625 C165.63019531 83.05380859 165.76039063 82.04511719 165.89453125 81.00585938 C166.70109633 74.67961917 167.40225212 68.34931309 168 62 C172.65537356 61.07907719 177.14685433 60.87794003 181.875 60.9375 C182.56335938 60.94201172 183.25171875 60.94652344 183.9609375 60.95117188 C185.64066335 60.96283664 187.32034375 60.98076729 189 61 C190.58502671 64.17005342 190.60385067 67.49124878 191 71 C190.34 71 189.68 71 189 71 C187.21694476 73.63892176 186.00940379 75.97178863 185 79 C184.34 79 183.68 79 183 79 C184.13016255 82.52692672 184.13016255 82.52692672 186 86 C190.0240057 87.36105406 194.06654532 87.0345724 198.26953125 86.87890625 C198.95053391 86.85529526 199.63153656 86.83168427 200.33317566 86.80735779 C202.49318912 86.73121614 204.65279828 86.64698181 206.8125 86.5625 C208.28318381 86.50922961 209.75388693 86.45648961 211.22460938 86.40429688 C214.81665024 86.27566911 218.40837405 86.13978528 222 86 C223.4606285 83.35261084 224 82.10551666 224 79 C221.48322887 77.74161443 219.58706712 77.79181027 216.7734375 77.68359375 C215.7421875 77.64169922 214.7109375 77.59980469 213.6484375 77.55664062 C212.56820312 77.51732422 211.48796875 77.47800781 210.375 77.4375 C208.74304688 77.37272461 208.74304688 77.37272461 207.078125 77.30664062 C204.3855483 77.2003547 201.69287747 77.09831943 199 77 C198.94474774 75.64631959 198.90665631 74.29193765 198.875 72.9375 C198.85179687 72.18339844 198.82859375 71.42929687 198.8046875 70.65234375 C199 68 199 68 201 61 C213.87 61 226.74 61 240 61 C240.95504081 65.77520403 240.83688312 69.51301484 240.25 74.25 C240.17523438 74.96285156 240.10046875 75.67570312 240.0234375 76.41015625 C239.37050531 81.90072242 237.90483162 86.82233096 236 92 C235.68305176 92.87817383 235.36610352 93.75634766 235.03955078 94.66113281 C234.02357858 97.44782744 232.98364765 100.22450624 231.9375 103 C231.58623047 103.95261719 231.23496094 104.90523438 230.87304688 105.88671875 C230.53208984 106.79035156 230.19113281 107.69398438 229.83984375 108.625 C229.53425537 109.44226563 229.22866699 110.25953125 228.91381836 111.1015625 C228 113 228 113 226 114 C226 115.32 226 116.64 226 118 C225.34 118.66 224.68 119.32 224 120 C223.31731862 121.32520503 222.6492959 122.65812182 222 124 C220.09527905 125.90472095 217.29784669 125.12901963 214.76385498 125.13894653 C213.88787659 125.1369223 213.01189819 125.13489807 212.109375 125.1328125 C210.76422821 125.13424759 210.76422821 125.13424759 209.39190674 125.13571167 C207.48864675 125.13639381 205.58538446 125.13453717 203.68212891 125.13037109 C200.77631341 125.1250482 197.87065425 125.13030198 194.96484375 125.13671875 C193.11718716 125.13605748 191.26953067 125.13477532 189.421875 125.1328125 C188.55399353 125.13483673 187.68611206 125.13686096 186.79193115 125.13894653 C182.6895709 125.1231235 179.02806569 124.82088096 175 124 C172.10700447 124.90237966 172.10700447 124.90237966 170 127 C169.46455771 130.21265373 169.43429825 132.05716375 171.125 134.875 C173.81717543 136.49030526 175.92153205 136.26199727 179 136 C179.66 135.67 180.32 135.34 181 135 C183.32416296 134.91413191 185.65083307 134.89288957 187.9765625 134.90234375 C189.00443375 134.90446617 189.00443375 134.90446617 190.05307007 134.90663147 C192.24375761 134.91223325 194.4343433 134.92478594 196.625 134.9375 C198.10937352 134.94251478 199.59374865 134.94707772 201.078125 134.95117188 C204.71878315 134.96220323 208.35938164 134.97946901 212 135 C212 135.99 212 136.98 212 138 C211.01 138.66 210.02 139.32 209 140 C208.67 140.99 208.34 141.98 208 143 C206.00370596 145.2814789 204.17843697 146.89476794 201.5625 148.4375 C198.86318019 149.94539479 198.86318019 149.94539479 196.5625 152.4375 C193.89590395 155.10409605 191.16091617 156.95857497 188 159 C187.154375 159.680625 186.30875 160.36125 185.4375 161.0625 C180.08353262 165.31821766 174.01499166 167.91165256 167.8125 170.6875 C166.89791016 171.10322266 165.98332031 171.51894531 165.04101562 171.94726562 C164.16767578 172.33978516 163.29433594 172.73230469 162.39453125 173.13671875 C161.59893799 173.49467529 160.80334473 173.85263184 159.98364258 174.22143555 C158 175 158 175 156 175 C155.67 175.66 155.34 176.32 155 177 C153.1796875 177.5625 153.1796875 177.5625 150.875 178 C146.83984678 178.81348689 142.9441139 179.82515756 139 181 C139.66 181 140.32 181 141 181 C141 181.66 141 182.32 141 183 C141.78729492 182.98477295 142.57458984 182.9695459 143.38574219 182.95385742 C153.73004113 182.84502462 163.94320229 183.50528976 174.25 184.3125 C175.12352112 184.37969238 175.99704224 184.44688477 176.89703369 184.51611328 C187.90435618 185.36640614 198.9008542 186.28781564 209.875 187.5 C210.87563477 187.60610596 211.87626953 187.71221191 212.90722656 187.8215332 C225.97972561 189.3649707 225.97972561 189.3649707 231 192 C231.77294922 194.10351562 231.77294922 194.10351562 232 196 C221.5392033 201.71775826 208.70211232 202.49340266 197 203.5625 C196.34905365 203.62281403 195.6981073 203.68312805 195.0274353 203.74526978 C36.17250946 218.32244489 36.17250946 218.32244489 -5 196 C-4.505 194.02 -4.505 194.02 -4 192 C6.22909278 188.92944391 15.9498858 187.20897541 26.625 186.4375 C28.07863685 186.32178618 29.53216721 186.20472787 30.9855957 186.08642578 C34.05089073 185.83923361 37.11665439 185.60008335 40.18310547 185.36767578 C47.70320356 184.79697039 55.21971298 184.18142477 62.73675537 183.572052 C65.14212732 183.37864819 67.54780548 183.1896052 69.95361328 183.00170898 C71.08439552 182.9122274 71.08439552 182.9122274 72.23802185 182.82093811 C74.27470929 182.65977371 76.31154378 182.50047071 78.34838867 182.34130859 C81.9284571 182.00668697 85.44637268 181.53956649 89 181 C87.88882813 180.68546875 86.77765625 180.3709375 85.6328125 180.046875 C66.16070387 174.47621208 49.71089243 166.82889433 34 154 C33.01902344 153.24589844 32.03804687 152.49179687 31.02734375 151.71484375 C24.64984157 146.74091839 19.82753387 141.45531505 15 135 C14.19691406 134.02289063 13.39382812 133.04578125 12.56640625 132.0390625 C3.32580255 120.74950917 -9 101.95451835 -9 87 C-9.66 86.67 -10.32 86.34 -11 86 C-11.51831055 84.12988281 -11.51831055 84.12988281 -11.88671875 81.703125 C-12.02013672 80.8265625 -12.15355469 79.95 -12.29101562 79.046875 C-12.42185547 78.12390625 -12.55269531 77.2009375 -12.6875 76.25 C-12.82994141 75.3425 -12.97238281 74.435 -13.11914062 73.5 C-13.78256271 68.98476909 -14.08240241 65.48502132 -13 61 C-11.20841511 60.97303635 -9.41671527 60.95362083 -7.625 60.9375 C-6.62726563 60.92589844 -5.62953125 60.91429687 -4.6015625 60.90234375 C-2 61 -2 61 0 62 C-0.185625 60.88625 -0.37125 59.7725 -0.5625 58.625 C-1 55 -1 55 0 53 C-4.29 52.67 -8.58 52.34 -13 52 C-14.30541898 46.77832408 -13.41589953 42.74314943 -12.5 37.5 C-12.323479 36.48566895 -12.14695801 35.47133789 -11.96508789 34.42626953 C-9.78396769 22.75305231 -6.62454438 10.02742585 0 0 Z M3.1875 26.125 C1.42997586 28.90003811 1.53177254 30.78929745 2 34 C3.57695632 36.0785608 3.57695632 36.0785608 6 37 C8.6433774 37.08805146 8.6433774 37.08805146 11 36 C12.87843867 33.60925988 13.03849222 32.40416834 12.75 29.375 C12.1515662 26.84399771 12.1515662 26.84399771 10 25 C7.19015752 24.63976378 5.61758081 24.61667398 3.1875 26.125 Z M31 27 C29.63002255 28.15745487 29.63002255 28.15745487 29.6875 31.3125 C29.71459529 34.96656448 29.71459529 34.96656448 31.5625 37.5 C34.02866158 39.31118285 34.02866158 39.31118285 37.5625 39 C40.96274624 38.26294804 40.96274624 38.26294804 43 36.3125 C44.40757663 33.05747904 44.11573874 31.34721622 43 28 C38.12892856 23.25382783 36.52440576 23.45871426 31 27 Z M30 78 C29.16666667 81 29.16666667 81 30 84 C32.42095091 86.62846098 34.04614692 87.81388233 37.5625 88.5 C40.93074326 87.80907831 42.09321947 86.8601708 44 84 C43.93817728 80.47610516 43.67672002 78.04891604 41.75 75.0625 C37.03741264 72.20128625 33.45319111 74.25082108 30 78 Z M208 104 C207.58333333 106.5 207.58333333 106.5 208 109 C208.66 109.66 209.32 110.32 210 111 C212.54713404 110.99077298 212.54713404 110.99077298 215 110 C216.36020151 108.03241727 216.36020151 108.03241727 217 106 C215.71034824 104.62437146 214.37310707 103.29233607 213 102 C210.67642489 101.81509993 210.67642489 101.81509993 208 104 Z M181 102 C181.33 102.66 181.66 103.32 182 104 C181.01 104.495 181.01 104.495 180 105 C179.67 104.34 179.34 103.68 179 103 C178.23043864 105.34533951 178.23043864 105.34533951 178 108 C179.06345052 109.98029682 179.06345052 109.98029682 181 111 C183.13745922 110.74853421 184.45925779 110.54074221 186 109 C186.04063832 107.33382885 186.042721 105.66611905 186 104 C183.525 103.01 183.525 103.01 181 102 Z " fill="#213948" transform="translate(136,197)"/>
<path d="M0 0 C0.74056641 0.00451172 1.48113281 0.00902344 2.24414062 0.01367188 C4.05862899 0.02537825 5.87307534 0.04331102 7.6875 0.0625 C9.27252671 3.23255342 9.29135067 6.55374878 9.6875 10.0625 C9.0275 10.0625 8.3675 10.0625 7.6875 10.0625 C5.90444476 12.70142176 4.69690379 15.03428863 3.6875 18.0625 C3.0275 18.0625 2.3675 18.0625 1.6875 18.0625 C2.81766255 21.58942672 2.81766255 21.58942672 4.6875 25.0625 C8.7115057 26.42355406 12.75404532 26.0970724 16.95703125 25.94140625 C17.63803391 25.91779526 18.31903656 25.89418427 19.02067566 25.86985779 C21.18068912 25.79371614 23.34029828 25.70948181 25.5 25.625 C26.97068381 25.57172961 28.44138693 25.51898961 29.91210938 25.46679688 C33.50415024 25.33816911 37.09587405 25.20228528 40.6875 25.0625 C42.1481285 22.41511084 42.6875 21.16801666 42.6875 18.0625 C40.17072887 16.80411443 38.27456712 16.85431027 35.4609375 16.74609375 C34.4296875 16.70419922 33.3984375 16.66230469 32.3359375 16.61914062 C31.25570312 16.57982422 30.17546875 16.54050781 29.0625 16.5 C27.97453125 16.45681641 26.8865625 16.41363281 25.765625 16.36914062 C23.0730483 16.2628547 20.38037747 16.16081943 17.6875 16.0625 C17.63224774 14.70881959 17.59415631 13.35443765 17.5625 12 C17.53929687 11.24589844 17.51609375 10.49179687 17.4921875 9.71484375 C17.6875 7.0625 17.6875 7.0625 19.6875 0.0625 C32.5575 0.0625 45.4275 0.0625 58.6875 0.0625 C59.64254081 4.83770403 59.52438312 8.57551484 58.9375 13.3125 C58.82535156 14.38177734 58.82535156 14.38177734 58.7109375 15.47265625 C58.05800531 20.96322242 56.59233162 25.88483096 54.6875 31.0625 C54.37055176 31.94067383 54.05360352 32.81884766 53.72705078 33.72363281 C52.71107858 36.51032744 51.67114765 39.28700624 50.625 42.0625 C50.27373047 43.01511719 49.92246094 43.96773438 49.56054688 44.94921875 C49.21958984 45.85285156 48.87863281 46.75648438 48.52734375 47.6875 C48.22175537 48.50476563 47.91616699 49.32203125 47.60131836 50.1640625 C46.6875 52.0625 46.6875 52.0625 44.6875 53.0625 C44.6875 54.3825 44.6875 55.7025 44.6875 57.0625 C43.6975 58.0525 43.6975 58.0525 42.6875 59.0625 C42.00481862 60.38770503 41.3367959 61.72062182 40.6875 63.0625 C38.78277905 64.96722095 35.98534669 64.19151963 33.45135498 64.20144653 C32.13738739 64.19841019 32.13738739 64.19841019 30.796875 64.1953125 C29.90011047 64.19626923 29.00334595 64.19722595 28.07940674 64.19821167 C26.17614675 64.19889381 24.27288446 64.19703717 22.36962891 64.19287109 C19.46381341 64.1875482 16.55815425 64.19280198 13.65234375 64.19921875 C11.80468716 64.19855748 9.95703067 64.19727532 8.109375 64.1953125 C7.24149353 64.19733673 6.37361206 64.19936096 5.47943115 64.20144653 C1.3770709 64.1856235 -2.28443431 63.88338096 -6.3125 63.0625 C-9.20549553 63.96487966 -9.20549553 63.96487966 -11.3125 66.0625 C-11.84794229 69.27515373 -11.87820175 71.11966375 -10.1875 73.9375 C-7.49532457 75.55280526 -5.39096795 75.32449727 -2.3125 75.0625 C-1.6525 74.7325 -0.9925 74.4025 -0.3125 74.0625 C2.01166296 73.97663191 4.33833307 73.95538957 6.6640625 73.96484375 C7.69193375 73.96696617 7.69193375 73.96696617 8.74057007 73.96913147 C10.93125761 73.97473325 13.1218433 73.98728594 15.3125 74 C16.79687352 74.00501478 18.28124865 74.00957772 19.765625 74.01367188 C23.40628315 74.02470323 27.04688164 74.04196901 30.6875 74.0625 C30.6875 75.0525 30.6875 76.0425 30.6875 77.0625 C29.6975 77.7225 28.7075 78.3825 27.6875 79.0625 C27.1925 80.5475 27.1925 80.5475 26.6875 82.0625 C24.69120596 84.3439789 22.86593697 85.95726794 20.25 87.5 C17.55068019 89.00789479 17.55068019 89.00789479 15.25 91.5 C12.58340395 94.16659605 9.84841617 96.02107497 6.6875 98.0625 C5.841875 98.743125 4.99625 99.42375 4.125 100.125 C-1.22896738 104.38071766 -7.29750834 106.97415256 -13.5 109.75 C-14.87188477 110.37358398 -14.87188477 110.37358398 -16.27148438 111.00976562 C-17.58149414 111.59854492 -17.58149414 111.59854492 -18.91796875 112.19921875 C-19.71356201 112.55717529 -20.50915527 112.91513184 -21.32885742 113.28393555 C-23.3125 114.0625 -23.3125 114.0625 -25.3125 114.0625 C-25.6425 114.7225 -25.9725 115.3825 -26.3125 116.0625 C-29.31318897 116.83854025 -32.27326552 117.46928044 -35.3125 118.0625 C-36.48296875 118.31257813 -37.6534375 118.56265625 -38.859375 118.8203125 C-46.34634505 120.39410416 -53.68079499 121.55484778 -61.3125 122.0625 C-62.22488998 111.14499532 -62.46908172 100.29966385 -62.44287109 89.34765625 C-62.43752091 86.69785812 -62.4428467 84.04823047 -62.44921875 81.3984375 C-62.45298727 70.57599236 -62.04954622 59.86081204 -61.3125 49.0625 C-51.7425 49.0625 -42.1725 49.0625 -32.3125 49.0625 C-32.3125 52.3625 -32.3125 55.6625 -32.3125 59.0625 C-32.9725 59.0625 -33.6325 59.0625 -34.3125 59.0625 C-34.6425 60.3825 -34.9725 61.7025 -35.3125 63.0625 C-30.8575 64.5475 -30.8575 64.5475 -26.3125 66.0625 C-23.54084453 57.08761563 -21.15584089 48.06059081 -19.1875 38.875 C-18.3125 35.0625 -18.3125 35.0625 -17.3125 34.0625 C-17.02637299 32.47775337 -16.79743925 30.88259208 -16.59375 29.28515625 C-16.46613281 28.29580078 -16.33851563 27.30644531 -16.20703125 26.28710938 C-16.07683594 25.24361328 -15.94664062 24.20011719 -15.8125 23.125 C-15.68230469 22.11630859 -15.55210937 21.10761719 -15.41796875 20.06835938 C-14.61140367 13.74211917 -13.91024788 7.41181309 -13.3125 1.0625 C-8.8746439 -0.04915232 -4.54293614 -0.05277763 0 0 Z M26.6875 43.0625 C26.27083333 45.5625 26.27083333 45.5625 26.6875 48.0625 C27.3475 48.7225 28.0075 49.3825 28.6875 50.0625 C31.23463404 50.05327298 31.23463404 50.05327298 33.6875 49.0625 C35.04770151 47.09491727 35.04770151 47.09491727 35.6875 45.0625 C34.39784824 43.68687146 33.06060707 42.35483607 31.6875 41.0625 C29.36392489 40.87759993 29.36392489 40.87759993 26.6875 43.0625 Z M-0.3125 41.0625 C0.0175 41.7225 0.3475 42.3825 0.6875 43.0625 C-0.3025 43.5575 -0.3025 43.5575 -1.3125 44.0625 C-1.6425 43.4025 -1.9725 42.7425 -2.3125 42.0625 C-3.08206136 44.40783951 -3.08206136 44.40783951 -3.3125 47.0625 C-2.24904948 49.04279682 -2.24904948 49.04279682 -0.3125 50.0625 C1.82495922 49.81103421 3.14675779 49.60324221 4.6875 48.0625 C4.72813832 46.39632885 4.730221 44.72861905 4.6875 43.0625 C2.2125 42.0725 2.2125 42.0725 -0.3125 41.0625 Z " fill="#293B48" transform="translate(317.3125,257.9375)"/>
<path d="M0 0 C10.23 0 20.46 0 31 0 C30.67 0.99 30.34 1.98 30 3 C30 2.34 30 1.68 30 1 C20.43 1 10.86 1 1 1 C1 25.09 1 49.18 1 74 C3.64 73.67 6.28 73.34 9 73 C9.99 73.33 10.98 73.66 12 74 C12 73.34 12 72.68 12 72 C15.3 72 18.6 72 22 72 C22 72.66 22 73.32 22 74 C22.78729492 73.98477295 23.57458984 73.9695459 24.38574219 73.95385742 C34.73004113 73.84502462 44.94320229 74.50528976 55.25 75.3125 C56.12352112 75.37969238 56.99704224 75.44688477 57.89703369 75.51611328 C68.90435618 76.36640614 79.9008542 77.28781564 90.875 78.5 C91.87563477 78.60610596 92.87626953 78.71221191 93.90722656 78.8215332 C106.97972561 80.3649707 106.97972561 80.3649707 112 83 C112.77294922 85.10351562 112.77294922 85.10351562 113 87 C102.5392033 92.71775826 89.70211232 93.49340266 78 94.5625 C77.34905365 94.62281403 76.6981073 94.68312805 76.0274353 94.74526978 C-82.82749054 109.32244489 -82.82749054 109.32244489 -124 87 C-123.67 85.68 -123.34 84.36 -123 83 C-112.77082505 79.92941924 -103.05015568 78.20928512 -92.375 77.4375 C-90.92355927 77.32179858 -89.47222616 77.20474022 -88.02099609 77.08642578 C-84.95790787 76.8390949 -81.89435018 76.59987741 -78.83007812 76.36767578 C-71.25095219 75.79332923 -63.67479871 75.18174407 -56.09844971 74.572052 C-53.66017506 74.37780229 -51.22151701 74.18920618 -48.78271484 74.00170898 C-47.28482507 73.88402389 -45.78694067 73.76627028 -44.2890625 73.6484375 C-42.97631348 73.54708496 -41.66356445 73.44573242 -40.31103516 73.34130859 C-37.73676616 73.07594743 -35.4757238 72.69290031 -33 72 C-25.50837885 71.41641357 -18.33970909 72.58754739 -11 74 C-11 71.03 -11 68.06 -11 65 C-11.886875 64.896875 -12.77375 64.79375 -13.6875 64.6875 C-31.53056492 62.10207631 -31.53056492 62.10207631 -37 58 C-37.875 54.8125 -37.875 54.8125 -38 52 C-34.25 49 -34.25 49 -32 49 C-32.93614567 47.27009975 -33.87397958 45.54111304 -34.8125 43.8125 C-35.33457031 42.84957031 -35.85664063 41.88664062 -36.39453125 40.89453125 C-37.93954257 38.01188995 -37.93954257 38.01188995 -39.70703125 35.4609375 C-41.22646696 32.56896017 -41.25428821 31.02672443 -40.875 27.8125 C-40.78992188 26.95269531 -40.70484375 26.09289062 -40.6171875 25.20703125 C-40 23 -40 23 -37 21 C-34.9309082 21.16064453 -34.9309082 21.16064453 -33 22 C-31.55007836 24.6248066 -30.34888953 27.12668921 -29.1875 29.875 C-24.55472 40.26349379 -18.84625007 48.87166658 -12 58 C-11.67 44.47 -11.34 30.94 -11 17 C-7.7 16.67 -4.4 16.34 -1 16 C-0.67 10.72 -0.34 5.44 0 0 Z " fill="#C1D6DF" transform="translate(255,306)"/>
<path d="M0 0 C1.38668321 2.68914271 2.37664034 5.0353203 3.3125 7.875 C3.57611328 8.60847656 3.83972656 9.34195313 4.11132812 10.09765625 C5.1877637 13.16759459 6 15.72661348 6 19 C6.66 19.33 7.32 19.66 8 20 C8.5625 22.00390625 8.5625 22.00390625 9 24.5625 C9.56950562 27.75353944 10.20936258 30.8294913 11.125 33.9375 C12.4069731 38.86350687 12.38201808 43.94492359 12 49 C10.13037282 50.86962718 7.45336439 50.12886303 4.96618652 50.13894653 C4.12140747 50.1369223 3.27662842 50.13489807 2.40625 50.1328125 C1.54439087 50.13376923 0.68253174 50.13472595 -0.20544434 50.13571167 C-2.03133212 50.1363935 -3.85722231 50.13453904 -5.68310547 50.13037109 C-8.48801078 50.12502286 -11.29275595 50.13031599 -14.09765625 50.13671875 C-15.86718786 50.13605797 -17.63671936 50.13477681 -19.40625 50.1328125 C-20.25102905 50.13483673 -21.09580811 50.13686096 -21.96618652 50.13894653 C-27.88504969 50.11495031 -27.88504969 50.11495031 -29 49 C-29.28515039 47.40591974 -29.51451785 45.80176569 -29.71875 44.1953125 C-29.84636719 43.21949219 -29.97398437 42.24367187 -30.10546875 41.23828125 C-30.30076172 39.69720703 -30.30076172 39.69720703 -30.5 38.125 C-30.75774436 36.10642782 -31.01804982 34.08818055 -31.28125 32.0703125 C-31.39533203 31.17070801 -31.50941406 30.27110352 -31.62695312 29.34423828 C-31.95772172 26.85482335 -31.95772172 26.85482335 -33 24 C-35.97 24 -38.94 24 -42 24 C-44.23796972 28.38972448 -44.23796972 28.38972448 -44 33 C-43.34 33.680625 -42.68 34.36125 -42 35.0625 C-38.84925317 39.69015941 -39.68773219 44.56133556 -40 50 C-43.31248187 50.02888146 -46.62493167 50.04675799 -49.9375 50.0625 C-50.88302734 50.07087891 -51.82855469 50.07925781 -52.80273438 50.08789062 C-54.15141602 50.09272461 -54.15141602 50.09272461 -55.52734375 50.09765625 C-56.77632446 50.10551147 -56.77632446 50.10551147 -58.05053711 50.11352539 C-60 50 -60 50 -61 49 C-61.20380838 47.55684166 -61.34745757 46.10508747 -61.46484375 44.65234375 C-61.5417041 43.74371582 -61.61856445 42.83508789 -61.69775391 41.89892578 C-61.77687012 40.92165527 -61.85598633 39.94438477 -61.9375 38.9375 C-62.7353112 29.58800702 -63.74764299 20.29941692 -65 11 C-63.25009203 10.72857267 -61.50006325 10.45792435 -59.75 10.1875 C-57.96335937 9.9090625 -57.96335937 9.9090625 -56.140625 9.625 C-53.23787381 9.17929088 -50.33209624 8.76886453 -47.421875 8.375 C-34.11542298 6.53796517 -20.35972238 4.45709461 -7.7109375 -0.21484375 C-4.49815331 -1.14534753 -3.04418672 -1.45835411 0 0 Z M-12.6875 24.4375 C-13.120625 24.953125 -13.55375 25.46875 -14 26 C-14.33 26.33 -14.66 26.66 -15 27 C-15 28.32 -15 29.64 -15 31 C-14.34 31 -13.68 31 -13 31 C-12.67 31.99 -12.34 32.98 -12 34 C-10.1935345 35.0146239 -10.1935345 35.0146239 -8 35 C-5.63450124 34.05945016 -5.63450124 34.05945016 -4 32 C-3.52714528 28.75756763 -3.40756874 26.88864689 -5.25 24.125 C-7.99946886 22.35748431 -10.18257919 22.30367857 -12.6875 24.4375 Z " fill="#2C4B5C" transform="translate(365,199)"/>
<path d="M0 0 C10.23 0 20.46 0 31 0 C31 19.47 31 38.94 31 59 C21.01299112 49.01299112 12.49976979 35.49930936 8 22 C6.35 22.33 4.7 22.66 3 23 C1.54807294 29.88587189 1.85985705 34.04419663 5.65234375 40.0234375 C6.09707031 40.67570312 6.54179687 41.32796875 7 42 C10 46.86206897 10 46.86206897 10 49 C9.360625 49.598125 8.72125 50.19625 8.0625 50.8125 C5.74825544 53.26700181 5.36608527 54.70523261 5 58 C-2.97902478 55.06568473 -10.29587462 50.30455963 -16 44 C-18.39846263 41.65874091 -20.80195025 39.32273997 -23.20703125 36.98828125 C-25 35 -25 35 -25 33 C-26.12148437 33.54140625 -26.12148437 33.54140625 -27.265625 34.09375 C-28.25046875 34.5578125 -29.2353125 35.021875 -30.25 35.5 C-31.22453125 35.9640625 -32.1990625 36.428125 -33.203125 36.90625 C-36 38 -36 38 -40 38 C-40.28875 37.071875 -40.5775 36.14375 -40.875 35.1875 C-41.8875 31.90208333 -41.8875 31.90208333 -44 29 C-36.33169688 25.17686612 -28.67642671 21.66452983 -20.5 19.0625 C-19.85482422 18.85149658 -19.20964844 18.64049316 -18.54492188 18.4230957 C-14.26724621 17.11977596 -10.45546994 16.8105277 -6 17 C-5.67 16.34 -5.34 15.68 -5 15 C-2.35139573 14.40644386 0.29197322 14.25790731 3 14 C3.19156526 8.89849977 3.19156526 8.89849977 0 0 Z " fill="#80A6B1" transform="translate(213,306)"/>
<path d="M0 0 C9.57 0 19.14 0 29 0 C29 3.3 29 6.6 29 10 C28.34 10 27.68 10 27 10 C26.67 11.32 26.34 12.64 26 14 C28.97 14.99 31.94 15.98 35 17 C31.97677583 27.5812846 26.7915346 37.66115045 21 47 C27.95500171 43.50927671 34.04043857 39.6460316 40.00390625 34.63671875 C42 33 42 33 44 32 C44.763125 32.61875 45.52625 33.2375 46.3125 33.875 C48.99625809 36.05597052 48.99625809 36.05597052 52 38 C38.17878281 53.6659983 20.6926137 61.78293425 0 64 C-1.01490608 58.96326402 -1.14554644 54.15437877 -1.1328125 49.04296875 C-1.13376923 48.18173904 -1.13472595 47.32050934 -1.13571167 46.43318176 C-1.13639047 44.61015754 -1.13455713 42.78713087 -1.13037109 40.96411133 C-1.12509088 38.23447921 -1.13028853 35.50501716 -1.13671875 32.77539062 C-1.14045538 21.80576203 -0.7507078 10.94484306 0 0 Z " fill="#7FA6B0" transform="translate(256,307)"/>
<path d="M0 0 C5.09676558 4.06735556 9.25040402 8.42384382 13.25 13.5625 C13.765625 14.20896484 14.28125 14.85542969 14.8125 15.52148438 C20.27169158 22.43692938 20.27169158 22.43692938 22 26 C21.505 27.485 21.505 27.485 21 29 C19.00390625 29.9140625 19.00390625 29.9140625 16.5625 30.625 C13.20490628 31.61831857 13.20490628 31.61831857 10 33 C6.36422185 33.82291275 2.67613119 34.38796957 -1 35 C-1.72106934 35.12165527 -2.44213867 35.24331055 -3.18505859 35.36865234 C-15.1237686 37.35884939 -26.90425936 38.57635691 -39 39 C-39.8655047 36.73291675 -40.71759315 34.46224921 -41.5625 32.1875 C-41.80935547 31.54490234 -42.05621094 30.90230469 -42.31054688 30.24023438 C-44.11328125 25.33984375 -44.11328125 25.33984375 -43 22 C-41.14916992 21.12792969 -41.14916992 21.12792969 -38.73046875 20.421875 C-37.84721924 20.15189697 -36.96396973 19.88191895 -36.05395508 19.60375977 C-35.1080249 19.32201904 -34.16209473 19.04027832 -33.1875 18.75 C-20.21780687 14.6485104 -10.40483048 8.86252154 0 0 Z M-4 17 C-3.67 17.66 -3.34 18.32 -3 19 C-2.960008 20.99960012 -2.95653201 23.00047242 -3 25 C-1.05000871 24.80528889 -1.05000871 24.80528889 1 24 C2.28436734 22.0162233 2.28436734 22.0162233 3 20 C2.34 19.01 1.68 18.02 1 17 C-1.58380177 16.74969023 -1.58380177 16.74969023 -4 17 Z " fill="#315C6E" transform="translate(336,161)"/>
<path d="M0 0 C3.45522036 6.7722319 3.76593087 15.10876841 4.5703125 22.55859375 C4.88251261 25.97462638 4.88251261 25.97462638 6 29 C5.87890625 31.26171875 5.87890625 31.26171875 5.5625 33.6875 C5.46066406 34.49574219 5.35882813 35.30398437 5.25390625 36.13671875 C5.17011719 36.75160156 5.08632813 37.36648437 5 38 C-0.39346988 38.02464849 -5.78690725 38.04283531 -11.18041992 38.05493164 C-13.01668875 38.05997231 -14.85295354 38.06680477 -16.68920898 38.07543945 C-19.32276401 38.08751672 -21.95626616 38.09323081 -24.58984375 38.09765625 C-25.82890724 38.10539818 -25.82890724 38.10539818 -27.09300232 38.11329651 C-29.06236368 38.11349205 -31.03161614 38.06204152 -33 38 C-34.88810241 36.11189759 -34.26515297 32.85328022 -34.3515625 30.33203125 C-34.37471527 29.65959885 -34.39786804 28.98716644 -34.42172241 28.2943573 C-34.46944515 26.86615765 -34.5146689 25.43787268 -34.55761719 24.00952148 C-34.62419701 21.83868171 -34.70217302 19.66846288 -34.78125 17.49804688 C-34.82621749 16.10939738 -34.8705093 14.72072582 -34.9140625 13.33203125 C-34.9752124 11.44061401 -34.9752124 11.44061401 -35.03759766 9.51098633 C-35.00233762 6.21829454 -34.6410052 3.22391554 -34 0 C-29.64028686 -0.16775443 -25.28038583 -0.32829897 -20.92016602 -0.48217773 C-19.43702051 -0.53553529 -17.95394439 -0.59085973 -16.47094727 -0.64819336 C-14.33885663 -0.73027921 -12.20661621 -0.80528001 -10.07421875 -0.87890625 C-8.14968872 -0.94960327 -8.14968872 -0.94960327 -6.1862793 -1.02172852 C-3 -1 -3 -1 0 0 Z M-15 15 C-15.66 16.32 -16.32 17.64 -17 19 C-16.01 20.32 -15.02 21.64 -14 23 C-12.35 22.67 -10.7 22.34 -9 22 C-8.32041397 19.60280568 -8.32041397 19.60280568 -8 17 C-9.83883881 14.71271266 -9.83883881 14.71271266 -12.625 14.875 C-13.40875 14.91625 -14.1925 14.9575 -15 15 Z " fill="#304E5D" transform="translate(289,211)"/>
<path d="M0 0 C0 0.66 0 1.32 0 2 C0.79857422 2.36544922 0.79857422 2.36544922 1.61328125 2.73828125 C4.02111363 4.01116154 6.22137262 5.48367345 8.46630859 7.02124023 C14.3547847 11.01120483 20.28692013 14.24505635 26.875 16.9375 C27.56360107 17.21940186 28.25220215 17.50130371 28.96166992 17.79174805 C33.57102887 19.60345833 38.17583261 20.8829948 43 22 C42.46246904 28.18160604 40.45417612 33.326858 38 39 C20.43033852 38.55632168 3.0180229 36.21506162 -13.9375 31.5 C-14.64720947 31.31083008 -15.35691895 31.12166016 -16.08813477 30.92675781 C-20.60751102 29.56804316 -20.60751102 29.56804316 -22.22265625 27.23046875 C-21.86955238 23.69323529 -19.69548872 21.45512487 -17.5 18.8125 C-17.04165771 18.24096191 -16.58331543 17.66942383 -16.11108398 17.08056641 C-15.18403004 15.92478836 -14.25233067 14.77272039 -13.31591797 13.62451172 C-11.52063048 11.40821433 -9.79332044 9.14181645 -8.0625 6.875 C-2.78301887 0 -2.78301887 0 0 0 Z M-1 17 C-1.66 17.66 -2.32 18.32 -3 19 C-2.67958603 21.60280568 -2.67958603 21.60280568 -2 24 C-0.15274948 24.69159401 -0.15274948 24.69159401 2 25 C2.99 24.34 3.98 23.68 5 23 C4.67 21.35 4.34 19.7 4 18 C1.60280568 17.32041397 1.60280568 17.32041397 -1 17 Z " fill="#225165" transform="translate(164,161)"/>
<path d="M0 0 C0.81605209 -0.00095673 1.63210419 -0.00191345 2.47288513 -0.00289917 C4.1986397 -0.00358006 5.92439683 -0.00173211 7.65014648 0.00244141 C10.30132758 0.00779782 12.95233978 0.00248983 15.60351562 -0.00390625 C17.27734413 -0.00324559 18.95117252 -0.00196467 20.625 0 C21.42289444 -0.00202423 22.22078888 -0.00404846 23.04286194 -0.00613403 C28.63113831 0.01785706 28.63113831 0.01785706 29.74609375 1.1328125 C30.23700433 8.7419265 29.12076735 15.88453662 27.81347656 23.35498047 C27.2120737 26.84697402 26.74146255 29.96531748 26.83984375 33.5234375 C26.74609375 36.1328125 26.74609375 36.1328125 25.69384766 37.77539062 C22.69790168 39.86331487 20.09905883 39.4865302 16.48828125 39.4609375 C15.43279587 39.45812775 15.43279587 39.45812775 14.35598755 39.45526123 C12.87155403 39.4485476 11.38713801 39.43464659 9.90283203 39.4140625 C7.62255547 39.38283252 5.34296948 39.373084 3.0625 39.3671875 C-8.0904617 39.29625705 -8.0904617 39.29625705 -9.25390625 38.1328125 C-9.41401106 35.39580072 -9.51337453 32.6811366 -9.5703125 29.94140625 C-9.5910936 29.12156754 -9.61187469 28.30172882 -9.63328552 27.45704651 C-9.69887119 24.82822349 -9.75770751 22.19929746 -9.81640625 19.5703125 C-9.85958292 17.79230689 -9.90319692 16.01431185 -9.94726562 14.23632812 C-10.05456168 9.86859616 -10.15580329 5.50076023 -10.25390625 1.1328125 C-7.03737346 -0.4754539 -3.53239096 -0.00898435 0 0 Z M10.74609375 15.1328125 C8.91061385 16.46659825 8.91061385 16.46659825 7.74609375 18.1328125 C8.40609375 19.7828125 9.06609375 21.4328125 9.74609375 23.1328125 C11.06609375 23.1328125 12.38609375 23.1328125 13.74609375 23.1328125 C13.74609375 22.4728125 13.74609375 21.8128125 13.74609375 21.1328125 C14.73609375 21.1328125 15.72609375 21.1328125 16.74609375 21.1328125 C16.41609375 19.4828125 16.08609375 17.8328125 15.74609375 16.1328125 C13.40075424 15.36325114 13.40075424 15.36325114 10.74609375 15.1328125 Z " fill="#2D424E" transform="translate(264.25390625,257.8671875)"/>
<path d="M0 0 C1.39136246 0.04242112 2.78256599 0.09030561 4.17358398 0.14282227 C4.82129761 0.16348755 5.46901123 0.18415283 6.13635254 0.20544434 C8.56431674 0.28442442 10.99198245 0.3723743 13.41967773 0.45922852 C21.55624023 0.73766602 21.55624023 0.73766602 29.85717773 1.02172852 C29.85717773 13.56172852 29.85717773 26.10172852 29.85717773 39.02172852 C17.31717773 39.02172852 4.77717773 39.02172852 -8.14282227 39.02172852 C-8.90014967 35.23509149 -9.25473311 33.22514934 -8.90844727 29.61547852 C-8.83037842 28.79474854 -8.75230957 27.97401855 -8.671875 27.12841797 C-8.5797876 26.26821045 -8.4877002 25.40800293 -8.39282227 24.52172852 C-8.30137939 23.63767334 -8.20993652 22.75361816 -8.11572266 21.84277344 C-5.70238245 0.03942453 -5.70238245 0.03942453 0 0 Z M4.85717773 17.02172852 C4.60710043 19.4798285 4.60710043 19.4798285 4.85717773 22.02172852 C5.51717773 22.68172852 6.17717773 23.34172852 6.85717773 24.02172852 C9.45998342 23.70131454 9.45998342 23.70131454 11.85717773 23.02172852 C12.53676376 20.6245342 12.53676376 20.6245342 12.85717773 18.02172852 C11.02452449 15.75332869 11.02452449 15.75332869 8.29467773 15.83422852 C5.9102805 15.75169529 5.9102805 15.75169529 4.85717773 17.02172852 Z " fill="#2B4858" transform="translate(214.142822265625,209.978271484375)"/>
<path d="M0 0 C1.31134718 3.90313437 1.03043509 7.77542704 0.87890625 11.828125 C0.84348976 12.95163361 0.84348976 12.95163361 0.80735779 14.09783936 C0.73099344 16.48209888 0.64685283 18.86601105 0.5625 21.25 C0.50925201 22.86977486 0.4565118 24.48956651 0.40429688 26.109375 C0.27541537 30.07313521 0.13956072 34.03660201 0 38 C-5.00063776 39.66687925 -10.2142615 39.26423898 -15.45166016 39.29516602 C-16.81732514 39.30672289 -18.18294366 39.32723335 -19.54833984 39.35668945 C-21.52148525 39.39925309 -23.49518751 39.41291449 -25.46875 39.42578125 C-27.23895508 39.44765503 -27.23895508 39.44765503 -29.04492188 39.4699707 C-32 39 -32 39 -33.85107422 37.24047852 C-35.01401268 34.97267437 -35.55621176 33.24042224 -35.9140625 30.7265625 C-36.03523437 29.90027344 -36.15640625 29.07398438 -36.28125 28.22265625 C-36.3946875 27.36542969 -36.508125 26.50820313 -36.625 25.625 C-36.74617187 24.80644531 -36.86734375 23.98789062 -36.9921875 23.14453125 C-38.03139293 15.79102323 -38.53047979 8.40873292 -39 1 C-33.76726191 0.85724064 -28.53451442 0.71483282 -23.30175781 0.57275391 C-21.52083069 0.52434855 -19.73990619 0.47584634 -17.95898438 0.42724609 C-15.40235057 0.35749384 -12.84570758 0.28808744 -10.2890625 0.21875 C-9.49005524 0.19687622 -8.69104797 0.17500244 -7.86782837 0.15246582 C-2.22774341 0 -2.22774341 0 0 0 Z M-25 16 C-25.04254356 17.99954746 -25.04080783 20.00041636 -25 22 C-24.67 22.33 -24.34 22.66 -24 23 C-21.66055264 22.71269945 -19.3260857 22.38063221 -17 22 C-16.83312552 19.58354218 -16.83312552 19.58354218 -17 17 C-17.66 16.34 -18.32 15.68 -19 15 C-22.7763932 14.7018576 -22.7763932 14.7018576 -25 16 Z " fill="#293D4A" transform="translate(244,258)"/>
<path d="M0 0 C10.23 0 20.46 0 31 0 C30.67 0.99 30.34 1.98 30 3 C30 2.34 30 1.68 30 1 C20.43 1 10.86 1 1 1 C0.97892344 8.70465471 0.95890021 16.40920257 0.94824982 24.11386108 C0.94300945 27.70319882 0.93602869 31.29251224 0.92456055 34.88183594 C0.91354875 38.35076507 0.90768521 41.81967089 0.90512276 45.28861618 C0.90242548 47.2302299 0.89464391 49.17183448 0.88670349 51.11343384 C0.88618682 59.46022077 1.29650732 67.68382015 2 76 C0.68 76 -0.64 76 -2 76 C-2.33 76.66 -2.66 77.32 -3 78 C-3.33 77.01 -3.66 76.02 -4 75 C-8.455 75.495 -8.455 75.495 -13 76 C-13 75.34 -13 74.68 -13 74 C-12.34 74 -11.68 74 -11 74 C-11 71.03 -11 68.06 -11 65 C-11.886875 64.896875 -12.77375 64.79375 -13.6875 64.6875 C-31.53056492 62.10207631 -31.53056492 62.10207631 -37 58 C-37.875 54.8125 -37.875 54.8125 -38 52 C-34.25 49 -34.25 49 -32 49 C-32.93614567 47.27009975 -33.87397958 45.54111304 -34.8125 43.8125 C-35.59560547 42.36810547 -35.59560547 42.36810547 -36.39453125 40.89453125 C-37.93954257 38.01188995 -37.93954257 38.01188995 -39.70703125 35.4609375 C-41.22646696 32.56896017 -41.25428821 31.02672443 -40.875 27.8125 C-40.78992188 26.95269531 -40.70484375 26.09289062 -40.6171875 25.20703125 C-40 23 -40 23 -37 21 C-34.9309082 21.16064453 -34.9309082 21.16064453 -33 22 C-31.55007836 24.6248066 -30.34888953 27.12668921 -29.1875 29.875 C-24.55472 40.26349379 -18.84625007 48.87166658 -12 58 C-11.67 44.47 -11.34 30.94 -11 17 C-7.7 16.67 -4.4 16.34 -1 16 C-0.67 10.72 -0.34 5.44 0 0 Z " fill="#86ABB5" transform="translate(255,306)"/>
<path d="M0 0 C4.99716854 3.74787641 8.06738172 7.59126741 11.25 12.9375 C11.7138208 13.70658691 12.1776416 14.47567383 12.65551758 15.26806641 C16.38931464 21.62316978 19.61789989 28.17703491 22.6875 34.875 C23.1215918 35.81980225 23.55568359 36.76460449 24.00292969 37.73803711 C27 44.48144531 27 44.48144531 27 49 C27.66 49.33 28.32 49.66 29 50 C29.6328125 51.92578125 29.6328125 51.92578125 30.125 54.3125 C30.29257812 55.09238281 30.46015625 55.87226563 30.6328125 56.67578125 C31 59 31 59 31 63 C20.77 63 10.54 63 0 63 C-1.12528656 51.74713442 -1.12528656 51.74713442 -1.12939453 47.21484375 C-1.13254669 46.20099609 -1.13569885 45.18714844 -1.13894653 44.14257812 C-1.1369223 43.08490234 -1.13489807 42.02722656 -1.1328125 40.9375 C-1.13376923 39.82439453 -1.13472595 38.71128906 -1.13571167 37.56445312 C-1.13638782 35.23160749 -1.13457325 32.89875992 -1.13037109 30.56591797 C-1.12497395 26.98270517 -1.130356 23.39961541 -1.13671875 19.81640625 C-1.13605866 17.54427056 -1.13477895 15.27213494 -1.1328125 13 C-1.13483673 11.92613037 -1.13686096 10.85226074 -1.13894653 9.74584961 C-1.13579437 8.75721924 -1.13264221 7.76858887 -1.12939453 6.75 C-1.12859894 5.87859375 -1.12780334 5.0071875 -1.12698364 4.109375 C-1 2 -1 2 0 0 Z M10 44 C9.34 44.66 8.68 45.32 8 46 C8.32041397 48.60280568 8.32041397 48.60280568 9 51 C10.83700789 51.77242269 10.83700789 51.77242269 13 52 C14.77190909 50.64555699 14.77190909 50.64555699 16 49 C15.28436734 46.9837767 15.28436734 46.9837767 14 45 C12.05714832 44.01382865 12.05714832 44.01382865 10 44 Z " fill="#335F72" transform="translate(255,138)"/>
<path d="M0 0 C0.33 0 0.66 0 1 0 C1.33 5.94 1.66 11.88 2 18 C2.33 18 2.66 18 3 18 C3 19.65 3 21.3 3 23 C2.34 23 1.68 23 1 23 C1 36.2 1 49.4 1 63 C-9.23 63 -19.46 63 -30 63 C-25.35594383 39.77971915 -15.69429668 17.91314552 0 0 Z M-12 44 C-12.99 44.495 -12.99 44.495 -14 45 C-14 46.65 -14 48.3 -14 50 C-12.02 50.99 -12.02 50.99 -10 52 C-8.43750191 50.68798827 -8.43750191 50.68798827 -7 49 C-7 48.01 -7 47.02 -7 46 C-9.39068734 44.89363605 -9.39068734 44.89363605 -12 44 Z " fill="#2A5D72" transform="translate(243,138)"/>
<path d="M0 0 C10.23 0 20.46 0 31 0 C31 19.47 31 38.94 31 59 C15.76487414 43.76487414 6.6347737 22.24649487 0 2 C0 1.34 0 0.68 0 0 Z " fill="#223441" transform="translate(213,306)"/>
<path d="M0 0 C0 2.64 0 5.28 0 8 C-6.12403453 9.7802426 -12.28993291 11.35254912 -18.4765625 12.90234375 C-21.74354083 13.92010529 -24.11242919 15.22186429 -27 17 C-27.99 17 -28.98 17 -30 17 C-30 17.66 -30 18.32 -30 19 C-30.58007812 19.27972656 -31.16015625 19.55945313 -31.7578125 19.84765625 C-37.28454151 22.68398087 -41.59859829 25.7044844 -45 31 C-45 31.66 -45 32.32 -45 33 C-45.66 33 -46.32 33 -47 33 C-47 33.66 -47 34.32 -47 35 C-47.66 35 -48.32 35 -49 35 C-49 35.66 -49 36.32 -49 37 C-49.99 37 -50.98 37 -52 37 C-53.70532323 38.94009522 -53.70532323 38.94009522 -55 41 C-59.79132712 40.50372318 -63.02090287 38.19771508 -66.8125 35.4375 C-67.40998047 35.01275391 -68.00746094 34.58800781 -68.62304688 34.15039062 C-70.08740533 33.10776741 -71.54445735 32.05489548 -73 31 C-72.68928633 28.00093766 -72.03240523 27.03067541 -69.8046875 24.921875 C-53.13080369 12.56096914 -21.62477947 -5.82362234 0 0 Z " fill="#447C8F" transform="translate(245,125)"/>
<path d="M0 0 C23.91653879 0.18575952 52.39174749 10.67446787 70 27 C71.03236434 28.30843481 72.04224037 29.63600796 73 31 C71.12952125 32.44371903 69.25399303 33.87993439 67.375 35.3125 C66.33085937 36.11300781 65.28671875 36.91351563 64.2109375 37.73828125 C61.22916096 39.83858371 58.3023492 41.46782897 55 43 C54.33355469 42.16597656 53.66710937 41.33195312 52.98046875 40.47265625 C39.8538778 24.32370082 26.09798912 15.8749257 6 11 C3.65977464 10.35497075 1.33033701 9.68030325 -1 9 C-1.09765625 2.84765625 -1.09765625 2.84765625 -1 1 C-0.67 0.67 -0.34 0.34 0 0 Z " fill="#427F93" transform="translate(255,124)"/>
<path d="M0 0 C9.57 0 19.14 0 29 0 C29 3.3 29 6.6 29 10 C28.01 10.33 27.02 10.66 26 11 C24.99676721 13.3347963 24.16613613 15.59365108 23.375 18 C18.84174652 30.85004124 11.72788559 49.18140961 0 57 C0 38.19 0 19.38 0 0 Z " fill="#1D2F3C" transform="translate(256,307)"/>
<path d="M0 0 C1.71875 1.64453125 1.71875 1.64453125 3.5 3.8125 C5.9965172 6.82943973 5.9965172 6.82943973 8.71875 9.63671875 C10 11 10 11 10 13 C10.55300781 13.26039063 11.10601562 13.52078125 11.67578125 13.7890625 C14.30438378 15.15858651 16.7148696 16.74085177 19.1875 18.375 C30.66687865 25.72302192 42.77252168 29.11735017 56 32 C56 34.97 56 37.94 56 41 C33.98424504 39.81106724 13.86488233 33.30091996 -5 22 C-5.97710937 21.43539063 -6.95421875 20.87078125 -7.9609375 20.2890625 C-11.36303464 18.05938037 -13.58757045 16.5339485 -14.66796875 12.515625 C-14.69031137 9.49490263 -14.38650325 7.69118007 -13 5 C-9.09384629 1.92450463 -4.99950784 0 0 0 Z " fill="#253541" transform="translate(188,339)"/>
<path d="M0 0 C1.28970703 -0.02126953 1.28970703 -0.02126953 2.60546875 -0.04296875 C4.8125 0.1875 4.8125 0.1875 6.8125 2.1875 C7.25 5.125 7.25 5.125 6.8125 8.1875 C2.39717496 11.81339062 -3.11497131 12.44984284 -8.5625 13.5625 C-16.73144357 15.31004461 -24.53354536 17.43050861 -32.38671875 20.26953125 C-35.1875 21.1875 -35.1875 21.1875 -38.1875 21.1875 C-39.609375 19.76171875 -39.609375 19.76171875 -40.9375 17.875 C-41.38609375 17.26011719 -41.8346875 16.64523437 -42.296875 16.01171875 C-43.1875 14.1875 -43.1875 14.1875 -42.1875 11.1875 C-39.63869719 10.05234435 -37.20175347 9.12031299 -34.5625 8.25 C-33.80356445 7.99130127 -33.04462891 7.73260254 -32.26269531 7.46606445 C-10.19448598 0.07711411 -10.19448598 0.07711411 0 0 Z " fill="#83A7B1" transform="translate(182.1875,301.8125)"/>
<path d="M0 0 C7.35626519 -1.13173311 11.33727229 1.59993303 17.27734375 5.8203125 C20.40697319 8.32581211 22.70905383 10.72721976 25 14 C23.12952125 15.44371903 21.25399303 16.87993439 19.375 18.3125 C18.33085937 19.11300781 17.28671875 19.91351563 16.2109375 20.73828125 C13.22916096 22.83858371 10.3023492 24.46782897 7 26 C6.28714844 25.13117188 5.57429688 24.26234375 4.83984375 23.3671875 C-1.23002941 15.91244679 -1.23002941 15.91244679 -8.1875 9.3125 C-9.5796875 8.1678125 -9.5796875 8.1678125 -11 7 C-11 6.34 -11 5.68 -11 5 C-8.69 4.34 -6.38 3.68 -4 3 C-4 2.34 -4 1.68 -4 1 C-2.68 1.33 -1.36 1.66 0 2 C0 1.34 0 0.68 0 0 Z " fill="#357285" transform="translate(303,141)"/>
<path d="M0 0 C2.9154476 0 5.34154481 0.40863269 8.1875 1 C9.08855469 1.185625 9.98960937 1.37125 10.91796875 1.5625 C11.60503906 1.706875 12.29210937 1.85125 13 2 C13.33 2.99 13.66 3.98 14 5 C14.65484375 5.28617188 15.3096875 5.57234375 15.984375 5.8671875 C18 7 18 7 18.828125 9.3828125 C18.96734375 10.28773438 19.1065625 11.19265625 19.25 12.125 C19.39953125 13.03507813 19.5490625 13.94515625 19.703125 14.8828125 C19.85007812 15.93082031 19.85007812 15.93082031 20 17 C17 19 17 19 15 19 C14.01 19.66 13.02 20.32 12 21 C12 20.34 12 19.68 12 19 C11.01 19 10.02 19 9 19 C9.33 19.66 9.66 20.32 10 21 C8.02 21.99 8.02 21.99 6 23 C5.94729537 24.36893239 5.94729537 24.36893239 7 27 C6.67 27.66 6.34 28.32 6 29 C5.34 29 4.68 29 4 29 C4 29.99 4 30.98 4 32 C3.34 32 2.68 32 2 32 C1.67 34.97 1.34 37.94 1 41 C2.39412109 40.89171875 2.39412109 40.89171875 3.81640625 40.78125 C5.05261719 40.6884375 6.28882813 40.595625 7.5625 40.5 C8.78066406 40.4071875 9.99882812 40.314375 11.25390625 40.21875 C14.84634216 40.00897272 18.40247543 39.96295985 22 40 C19 42 19 42 0 42 C0 28.14 0 14.28 0 0 Z " fill="#285B6F" transform="translate(256,158)"/>
<path d="M0 0 C0 2.64 0 5.28 0 8 C-6.12403453 9.7802426 -12.28993291 11.35254912 -18.4765625 12.90234375 C-21.74354083 13.92010529 -24.11242919 15.22186429 -27 17 C-27.99 17 -28.98 17 -30 17 C-30 17.66 -30 18.32 -30 19 C-31.98 19.66 -33.96 20.32 -36 21 C-35.67 17.7 -35.34 14.4 -35 11 C-35.99 11.495 -35.99 11.495 -37 12 C-37.33 11.34 -37.66 10.68 -38 10 C-38.7425 10.350625 -39.485 10.70125 -40.25 11.0625 C-43.21122875 12.0720098 -44.12062561 11.87980884 -47 11 C-36.15786517 6.72659402 -25.39100633 2.72476822 -13.9375 0.4375 C-13.11217773 0.26959961 -12.28685547 0.10169922 -11.43652344 -0.07128906 C-7.34147952 -0.82622225 -4.07574764 -1.23830562 0 0 Z " fill="#5B91A1" transform="translate(245,125)"/>
<path d="M0 0 C0 0.66 0 1.32 0 2 C0.51046875 2.23460937 1.0209375 2.46921875 1.546875 2.7109375 C4.91515199 4.48089197 8.06212652 6.55158635 11.25 8.625 C12.22453125 9.25535156 12.22453125 9.25535156 13.21875 9.8984375 C14.81368881 10.93045673 16.40700669 11.96498028 18 13 C14.06204091 14.22419163 11.83887763 13.48320272 8 12 C8 11.34 8 10.68 8 10 C6.35 10 4.7 10 3 10 C3 11.32 3 12.64 3 14 C2.01 14 1.02 14 0 14 C1.32 14.33 2.64 14.66 4 15 C4.33 16.32 4.66 17.64 5 19 C3.02 18.67 1.04 18.34 -1 18 C-1.99 20.475 -1.99 20.475 -3 23 C-3.33 21.68 -3.66 20.36 -4 19 C-4.91523438 19.28875 -5.83046875 19.5775 -6.7734375 19.875 C-8.55621094 20.431875 -8.55621094 20.431875 -10.375 21 C-11.55835938 21.37125 -12.74171875 21.7425 -13.9609375 22.125 C-17 23 -17 23 -19 23 C-18.34 24.65 -17.68 26.3 -17 28 C-15.35 28 -13.7 28 -12 28 C-11.67 28.99 -11.34 29.98 -11 31 C-15.05606165 30.53199289 -18.46588679 30.12046792 -22 28 C-20.91173705 21.40911169 -7.23886094 0 0 0 Z " fill="#426F83" transform="translate(164,161)"/>
<path d="M0 0 C0.66 0.33 1.32 0.66 2 1 C2 2.65 2 4.3 2 6 C2.639375 6.12375 3.27875 6.2475 3.9375 6.375 C4.618125 6.58125 5.29875 6.7875 6 7 C6.33 7.66 6.66 8.32 7 9 C7.99 9.66 8.98 10.32 10 11 C9.67 13.31 9.34 15.62 9 18 C9.66 18 10.32 18 11 18 C11.33 18.99 11.66 19.98 12 21 C12.99 21.33 13.98 21.66 15 22 C15.33 21.01 15.66 20.02 16 19 C16.33 20.65 16.66 22.3 17 24 C15.35 24 13.7 24 12 24 C12 24.66 12 25.32 12 26 C7.86713232 28.75524512 3.91023213 29.34530238 -1 30 C-1.33 29.67 -1.66 29.34 -2 29 C-2.33 29.66 -2.66 30.32 -3 31 C-4.98 31 -6.96 31 -9 31 C-8.67 30.34 -8.34 29.68 -8 29 C-7.34 29 -6.68 29 -6 29 C-6.495 28.38125 -6.99 27.7625 -7.5 27.125 C-9 25 -9 25 -9 23 C-8.01 22.67 -7.02 22.34 -6 22 C-5.67 22.33 -5.34 22.66 -5 23 C-3.07860387 22.67256303 -3.07860387 22.67256303 -0.9375 22.0625 C0.16271484 21.77052734 0.16271484 21.77052734 1.28515625 21.47265625 C1.85105469 21.31667969 2.41695313 21.16070312 3 21 C3 20.34 3 19.68 3 19 C3.66 19 4.32 19 5 19 C5.33 17.68 5.66 16.36 6 15 C5.01 14.67 4.02 14.34 3 14 C2.34 13.34 1.68 12.68 1 12 C0.67 12.33 0.34 12.66 0 13 C-2.65463121 13.45459858 -5.32189138 13.70243238 -8 14 C-8.66 12.35 -9.32 10.7 -10 9 C-6.86650268 7.95550089 -6.01031744 8.06576355 -3 9 C-3.061875 7.88625 -3.12375 6.7725 -3.1875 5.625 C-3.125625 4.42875 -3.06375 3.2325 -3 2 C-2.01 1.34 -1.02 0.68 0 0 Z " fill="#1F4B5F" transform="translate(337,164)"/>
<path d="M0 0 C-0.66 1.65 -1.32 3.3 -2 5 C-1.34 5.66 -0.68 6.32 0 7 C-0.66 7 -1.32 7 -2 7 C-2 7.66 -2 8.32 -2 9 C-1.01 9.33 -0.02 9.66 1 10 C1.75 12 1.75 12 2 14 C0.06729418 15.93270582 -3.38641388 15.62663055 -6 16 C-6.33 16.33 -6.66 16.66 -7 17 C-9.67058851 17.14115161 -12.32432238 17.04247107 -15 17 C-15.8655047 14.73291675 -16.71759315 12.46224921 -17.5625 10.1875 C-17.80935547 9.54490234 -18.05621094 8.90230469 -18.31054688 8.24023438 C-20.11328125 3.33984375 -20.11328125 3.33984375 -19 0 C-16.015625 -1.0546875 -16.015625 -1.0546875 -12.25 -1.875 C-11.01765625 -2.16117188 -9.7853125 -2.44734375 -8.515625 -2.7421875 C-4.53938703 -3.03377828 -3.11041541 -2.38623472 0 0 Z " fill="#2F5667" transform="translate(312,183)"/>
<path d="M0 0 C5.3933812 3.95514621 8.44147885 8.3331513 11.8125 14.0625 C12.30169922 14.86494141 12.79089844 15.66738281 13.29492188 16.49414062 C15.38918179 19.98457382 17.17602781 22.97939919 18 27 C16.68 26.34 15.36 25.68 14 25 C14 24.01 14 23.02 14 22 C12.37585622 21.80522261 10.75063577 21.61940542 9.125 21.4375 C8.22007812 21.33308594 7.31515625 21.22867188 6.3828125 21.12109375 C3.98346943 20.80325148 3.98346943 20.80325148 2 22 C1.67 35.2 1.34 48.4 1 62 C10.9 62 20.8 62 31 62 C31 62.33 31 62.66 31 63 C20.77 63 10.54 63 0 63 C-1.12528656 51.74713442 -1.12528656 51.74713442 -1.12939453 47.21484375 C-1.13254669 46.20099609 -1.13569885 45.18714844 -1.13894653 44.14257812 C-1.1369223 43.08490234 -1.13489807 42.02722656 -1.1328125 40.9375 C-1.13376923 39.82439453 -1.13472595 38.71128906 -1.13571167 37.56445312 C-1.13638782 35.23160749 -1.13457325 32.89875992 -1.13037109 30.56591797 C-1.12497395 26.98270517 -1.130356 23.39961541 -1.13671875 19.81640625 C-1.13605866 17.54427056 -1.13477895 15.27213494 -1.1328125 13 C-1.13483673 11.92613037 -1.13686096 10.85226074 -1.13894653 9.74584961 C-1.13579437 8.75721924 -1.13264221 7.76858887 -1.12939453 6.75 C-1.12859894 5.87859375 -1.12780334 5.0071875 -1.12698364 4.109375 C-1 2 -1 2 0 0 Z " fill="#7096A5" transform="translate(255,138)"/>
<path d="M0 0 C-0.433125 1.051875 -0.433125 1.051875 -0.875 2.125 C-2.05029444 5.01353304 -2.05029444 5.01353304 -2.9375 8.125 C-3.99714712 10.99228046 -4.81481898 11.9969174 -7 14 C-8.30065921 15.93383287 -8.30065921 15.93383287 -9 18 C-8.67 18.99 -8.34 19.98 -8 21 C-8.99 21 -9.98 21 -11 21 C-11.99 23.475 -11.99 23.475 -13 26 C-16.96 25.01 -20.92 24.02 -25 23 C-25.33 21.68 -25.66 20.36 -26 19 C-24 16.6875 -24 16.6875 -22.56640625 15.41015625 C-20.96357472 14.01570189 -20.96357472 14.01570189 -19.52734375 12.37109375 C-15.02518077 7.42645775 -6.98421032 0 0 0 Z " fill="#4B8093" transform="translate(224,149)"/>
<path d="M0 0 C8.32332899 1.02533763 15.51217784 8.02795824 21 14 C21.928125 14.845625 22.85625 15.69125 23.8125 16.5625 C26 19 26 19 26 23 C19.565 24.485 19.565 24.485 13 26 C12.22076172 24.28103516 12.22076172 24.28103516 11.42578125 22.52734375 C10.72173651 20.99721985 10.0172878 19.46728178 9.3125 17.9375 C8.97283203 17.18533203 8.63316406 16.43316406 8.28320312 15.65820312 C6.53025309 11.87379698 4.70472859 8.43262149 2.23046875 5.06640625 C0 2 0 2 0 0 Z " fill="#4A7687" transform="translate(275,149)"/>
<path d="M0 0 C5.09676558 4.06735556 9.25040402 8.42384382 13.25 13.5625 C13.765625 14.20896484 14.28125 14.85542969 14.8125 15.52148438 C20.27169158 22.43692938 20.27169158 22.43692938 22 26 C21.505 27.485 21.505 27.485 21 29 C19.00390625 29.9140625 19.00390625 29.9140625 16.5625 30.625 C13.20490628 31.61831857 13.20490628 31.61831857 10 33 C8.00039988 33.039992 5.99952758 33.04346799 4 33 C4.33 32.01 4.66 31.02 5 30 C8.96 29.505 8.96 29.505 13 29 C13 28.34 13 27.68 13 27 C14.65 27 16.3 27 18 27 C16.34822227 25.34822227 14.15144042 24.82747709 12 24 C12 23.01 12 22.02 12 21 C11.34 21 10.68 21 10 21 C10.0825 19.9275 10.165 18.855 10.25 17.75 C10.34689041 14.00111615 10.34689041 14.00111615 8.1875 11.625 C6.00778171 9.82933128 6.00778171 9.82933128 3 9 C2.67 7.35 2.34 5.7 2 4 C1.01 4.66 0.02 5.32 -1 6 C-1.2502157 9.08365871 -1.2502157 9.08365871 -1 12 C-5.51718381 13.36884358 -8.58774263 12.47075246 -13 11 C-9.02791739 6.77966223 -4.68024866 3.40387808 0 0 Z " fill="#3B6878" transform="translate(336,161)"/>
<path d="M0 0 C0.33 0 0.66 0 1 0 C1.33 2.64 1.66 5.28 2 8 C5.98667704 8.79836001 5.98667704 8.79836001 10 9 C13.04062507 6.83955587 14.54290754 4.39988241 16 1 C16.66 2.98 17.32 4.96 18 7 C16.43679197 8.56320803 14.8505872 9.78389984 13 11 C11.68 11 10.36 11 9 11 C9 14.63 9 18.26 9 22 C15.93 22 22.86 22 30 22 C30 22.33 30 22.66 30 23 C18.45 23 6.9 23 -5 23 C-4.34 22.67 -3.68 22.34 -3 22 C-3.061875 20.96875 -3.12375 19.9375 -3.1875 18.875 C-3.22233544 12.44205621 -1.46876321 6.22475837 0 0 Z " fill="#6A919D" transform="translate(165,226)"/>
<path d="M0 0 C0.33 0 0.66 0 1 0 C1 2.64 1 5.28 1 8 C2.29357422 7.98259766 2.29357422 7.98259766 3.61328125 7.96484375 C14.1067444 7.88727855 24.52706086 8.36869258 35 9 C35 10.65 35 12.3 35 14 C34.505 12.02 34.505 12.02 34 10 C27.73 10.33 21.46 10.66 15 11 C15.33 14.3 15.66 17.6 16 21 C14.88625 21.28875 13.7725 21.5775 12.625 21.875 C8.99708908 22.69241329 8.99708908 22.69241329 7 25 C6.35232207 27.57061311 6.35232207 27.57061311 6 30 C5.67 30 5.34 30 5 30 C4.49078672 27.81462633 3.99305563 25.62657569 3.5 23.4375 C3.08234375 21.61025391 3.08234375 21.61025391 2.65625 19.74609375 C2.01362446 16.07777293 1.88525177 12.71497397 2 9 C1.34 9 0.68 9 0 9 C0 6.03 0 3.06 0 0 Z " fill="#698794" transform="translate(160,250)"/>
<path d="M0 0 C0.37511719 0.76183594 0.75023437 1.52367187 1.13671875 2.30859375 C3.99349504 8.0725177 6.90867027 13.73741274 10.21484375 19.2578125 C10.47394531 19.83273437 10.73304688 20.40765625 11 21 C10.67 21.66 10.34 22.32 10 23 C-10.51512386 11.07776419 -10.51512386 11.07776419 -14 3 C-12.4188708 2.49307308 -10.83498617 1.99473557 -9.25 1.5 C-7.92742187 1.08234375 -7.92742187 1.08234375 -6.578125 0.65625 C-4 0 -4 0 0 0 Z " fill="#1C3240" transform="translate(212,332)"/>
<path d="M0 0 C0.66 0.66 1.32 1.32 2 2 C2.66 1.67 3.32 1.34 4 1 C3.979375 1.78375 3.95875 2.5675 3.9375 3.375 C3.81315937 5.98114961 3.81315937 5.98114961 5 8 C4.34 8 3.68 8 3 8 C2.67 9.65 2.34 11.3 2 13 C1.38511719 13.18175781 0.77023438 13.36351562 0.13671875 13.55078125 C-0.67152344 13.80214844 -1.47976562 14.05351562 -2.3125 14.3125 C-3.51326172 14.67794922 -3.51326172 14.67794922 -4.73828125 15.05078125 C-7.12036367 16.05051532 -8.22172739 17.18131211 -10 19 C-12.6875 19.1875 -12.6875 19.1875 -15 19 C-15.33 16.69 -15.66 14.38 -16 12 C-13.69 11.01 -11.38 10.02 -9 9 C-9.185625 8.38125 -9.37125 7.7625 -9.5625 7.125 C-10 5 -10 5 -9 3 C-6.93359375 2.1484375 -6.93359375 2.1484375 -4.4375 1.375 C-3.61121094 1.11460937 -2.78492188 0.85421875 -1.93359375 0.5859375 C-1.29550781 0.39257812 -0.65742188 0.19921875 0 0 Z " fill="#2F738B" transform="translate(207,134)"/>
<path d="M0 0 C8.48684611 0.06591725 16.77773506 2.09147427 25 4 C25 4.33 25 4.66 25 5 C21.7 5.33 18.4 5.66 15 6 C15.33 7.98 15.66 9.96 16 12 C18.64 12.33 21.28 12.66 24 13 C24 13.66 24 14.32 24 15 C15.61527763 13.20327378 7.31243331 11.10105676 -1 9 C-1.09765625 2.84765625 -1.09765625 2.84765625 -1 1 C-0.67 0.67 -0.34 0.34 0 0 Z " fill="#6A99A5" transform="translate(255,124)"/>
<path d="M0 0 C5.91492272 0.45224761 11.35199888 1.1582605 17 3 C17 5.97 17 8.94 17 12 C3.44736842 11.16666667 3.44736842 11.16666667 -1 9 C-2.875 6.875 -2.875 6.875 -4 5 C-3.34 4.01 -2.68 3.02 -2 2 C-1.34 2 -0.68 2 0 2 C0 1.34 0 0.68 0 0 Z " fill="#1E2F3C" transform="translate(227,368)"/>
<path d="M0 0 C2.12109375 0.4140625 2.12109375 0.4140625 4 1 C3.3503125 1.72316406 3.3503125 1.72316406 2.6875 2.4609375 C2.130625 3.09257812 1.57375 3.72421875 1 4.375 C0.443125 5.00148437 -0.11375 5.62796875 -0.6875 6.2734375 C-2.20172487 7.90389833 -2.20172487 7.90389833 -2 10 C-2.66 10 -3.32 10 -4 10 C-4 10.66 -4 11.32 -4 12 C-4.66 12 -5.32 12 -6 12 C-6 12.66 -6 13.32 -6 14 C-6.99 14 -7.98 14 -9 14 C-10.70532323 15.94009522 -10.70532323 15.94009522 -12 18 C-17.02692063 17.54300722 -20.14896261 15.00758252 -24 12 C-22 11 -22 11 -19 11.9375 C-17.515 12.4634375 -17.515 12.4634375 -16 13 C-15.34 13 -14.68 13 -14 13 C-13.67 9.7 -13.34 6.4 -13 3 C-12.01 2.67 -11.02 2.34 -10 2 C-9.67 2.66 -9.34 3.32 -9 4 C-6.05309317 3.59070739 -4.30364956 3.23923904 -1.9375 1.375 C-1.298125 0.92125 -0.65875 0.4675 0 0 Z " fill="#386D83" transform="translate(202,148)"/>
<path d="M0 0 C0.66 0.33 1.32 0.66 2 1 C2 2.65 2 4.3 2 6 C2.639375 6.12375 3.27875 6.2475 3.9375 6.375 C4.618125 6.58125 5.29875 6.7875 6 7 C6.33 7.66 6.66 8.32 7 9 C7.99 9.66 8.98 10.32 10 11 C9.67 13.31 9.34 15.62 9 18 C9.66 18.33 10.32 18.66 11 19 C9.824375 19.433125 9.824375 19.433125 8.625 19.875 C5.90328368 20.84912254 5.90328368 20.84912254 4 23 C3.67 21.68 3.34 20.36 3 19 C3.66 19 4.32 19 5 19 C5.33 17.68 5.66 16.36 6 15 C5.01 14.67 4.02 14.34 3 14 C2.34 13.34 1.68 12.68 1 12 C0.67 12.33 0.34 12.66 0 13 C-2.65463121 13.45459858 -5.32189138 13.70243238 -8 14 C-8.66 12.35 -9.32 10.7 -10 9 C-6.86650268 7.95550089 -6.01031744 8.06576355 -3 9 C-3.061875 7.88625 -3.12375 6.7725 -3.1875 5.625 C-3.125625 4.42875 -3.06375 3.2325 -3 2 C-2.01 1.34 -1.02 0.68 0 0 Z " fill="#22566B" transform="translate(337,164)"/>
<path d="M0 0 C0.12375 1.134375 0.2475 2.26875 0.375 3.4375 C0.58125 4.613125 0.7875 5.78875 1 7 C1.66 7.33 2.32 7.66 3 8 C1.9375 10 1.9375 10 0 12 C-4.30162169 12.46926782 -7.31687907 12.28607506 -11 10 C-11.7425 9.62875 -12.485 9.2575 -13.25 8.875 C-14.11625 8.441875 -14.11625 8.441875 -15 8 C-15 6.68 -15 5.36 -15 4 C-13.75108386 3.51801537 -12.50081192 3.03954323 -11.25 2.5625 C-10.55390625 2.29566406 -9.8578125 2.02882812 -9.140625 1.75390625 C-5.96124047 0.63415951 -3.38864415 0 0 0 Z " fill="#1D5066" transform="translate(160,180)"/>
<path d="M0 0 C0.33 0 0.66 0 1 0 C1.33 5.94 1.66 11.88 2 18 C2.33 18 2.66 18 3 18 C3 19.65 3 21.3 3 23 C2.34 23 1.68 23 1 23 C1 36.2 1 49.4 1 63 C-9.23 63 -19.46 63 -30 63 C-29.67 62.01 -29.34 61.02 -29 60 C-29 60.66 -29 61.32 -29 62 C-19.43 62 -9.86 62 0 62 C-0.33 43.19 -0.66 24.38 -1 5 C-1.99 7.31 -2.98 9.62 -4 12 C-6.6875 13.4375 -6.6875 13.4375 -9 14 C-7.34966761 8.71893635 -3.90667286 3.90667286 0 0 Z " fill="#85A1AC" transform="translate(243,138)"/>
<path d="M0 0 C3.37462715 0.54723683 5.08235 1.0549 8 3 C8.375 6.4375 8.375 6.4375 8 10 C7.01 10.99 6.02 11.98 5 13 C2.36 12.01 -0.28 11.02 -3 10 C-2.67 8.68 -2.34 7.36 -2 6 C-2.99 6.66 -3.98 7.32 -5 8 C-4.67 6.35 -4.34 4.7 -4 3 C-3.01 2.67 -2.02 2.34 -1 2 C-0.67 1.34 -0.34 0.68 0 0 Z " fill="#256175" transform="translate(181,149)"/>
<path d="M0 0 C-0.33 0.99 -0.66 1.98 -1 3 C-1.99 3 -2.98 3 -4 3 C-4 3.66 -4 4.32 -4 5 C-5.9570868 5.67031719 -7.91571113 6.33614683 -9.875 7 C-10.96554688 7.37125 -12.05609375 7.7425 -13.1796875 8.125 C-16 9 -16 9 -18 9 C-17.34 10.65 -16.68 12.3 -16 14 C-14.35 14 -12.7 14 -11 14 C-10.67 14.99 -10.34 15.98 -10 17 C-14.05606165 16.53199289 -17.46588679 16.12046792 -21 14 C-20.04158702 9.08675646 -17.54901869 5.48003128 -14 2 C-9.58768188 -0.15791304 -4.84617015 -0.24230851 0 0 Z " fill="#21536A" transform="translate(163,175)"/>
<path d="M0 0 C4.29 0 8.58 0 13 0 C13.33 0.99 13.66 1.98 14 3 C14.99 3 15.98 3 17 3 C16.67 3.99 16.34 4.98 16 6 C15.34 6 14.68 6 14 6 C13.67 7.32 13.34 8.64 13 10 C12.34 10 11.68 10 11 10 C11 9.34 11 8.68 11 8 C9.1128125 7.9690625 9.1128125 7.9690625 7.1875 7.9375 C4.98046875 7.6875 4.98046875 7.6875 3 7 C1.31016493 4.71019091 0.81037139 2.78565167 0 0 Z " fill="#38788C" transform="translate(268,129)"/>
<path d="M0 0 C0.763125 0.185625 1.52625 0.37125 2.3125 0.5625 C5.08967375 1.22819173 5.08967375 1.22819173 8 0 C8 0.66 8 1.32 8 2 C7.34 2 6.68 2 6 2 C6.33 2.99 6.66 3.98 7 5 C6.34 5.66 5.68 6.32 5 7 C5 7.66 5 8.32 5 9 C7.31 9 9.62 9 12 9 C11.67 9.66 11.34 10.32 11 11 C12.65 11 14.3 11 16 11 C16 11.66 16 12.32 16 13 C18.97 13 21.94 13 25 13 C24.34 13.66 23.68 14.32 23 15 C20.6809082 14.89160156 20.6809082 14.89160156 17.80078125 14.390625 C16.75599609 14.21273437 15.71121094 14.03484375 14.63476562 13.8515625 C13.53841797 13.65304688 12.44207031 13.45453125 11.3125 13.25 C10.23548828 13.06695312 9.15847656 12.88390625 8.04882812 12.6953125 C2.58897429 11.74460834 -2.71244617 10.66418003 -8 9 C-8 8.67 -8 8.34 -8 8 C-6.88625 7.896875 -5.7725 7.79375 -4.625 7.6875 C-3.42875 7.460625 -2.2325 7.23375 -1 7 C1.30671915 4.28450846 1.30671915 4.28450846 0.625 1.8125 C0.41875 1.214375 0.2125 0.61625 0 0 Z " fill="#60808D" transform="translate(161,184)"/>
<path d="M0 0 C2.18083183 5.33092224 2.18083183 5.33092224 1.375 8.3125 C0 10 0 10 -1.8125 10.9375 C-5.07202686 11.03062934 -6.55150931 10.10842254 -9 8 C-9.5625 5 -9.5625 5 -9 2 C-6.09797328 -1.3319566 -4.08536588 -1.24830624 0 0 Z " fill="#86A7B0" transform="translate(343,120)"/>
<path d="M0 0 C2.91765891 -0.10806144 5.83131125 -0.18732877 8.75 -0.25 C9.9875 -0.30027344 9.9875 -0.30027344 11.25 -0.3515625 C17.37204285 -0.45030513 17.37204285 -0.45030513 20.58203125 1.8515625 C22 4 22 4 21.9375 6.625 C21 9 21 9 18 11 C15.3125 11.125 15.3125 11.125 13 11 C11.875 4.25 11.875 4.25 13 2 C8.71 1.67 4.42 1.34 0 1 C0 0.67 0 0.34 0 0 Z " fill="#618D9C" transform="translate(123,248)"/>
<path d="M0 0 C2.4375 0.8125 2.4375 0.8125 4.4375 2.8125 C4.77083333 8.14583333 4.77083333 8.14583333 3.4375 10.8125 C0.15335695 11.76317299 -1.25943408 11.91352197 -4.5625 10.8125 C-5.96185013 8.01379973 -5.81515405 5.90751208 -5.5625 2.8125 C-3.8855372 0.07640281 -3.22049925 -0.23564629 0 0 Z " fill="#618893" transform="translate(160.5625,119.1875)"/>
<path d="M0 0 C0.33 0 0.66 0 1 0 C1 3.3 1 6.6 1 10 C1.66 10 2.32 10 3 10 C2.67 10.66 2.34 11.32 2 12 C1.01 12 0.02 12 -1 12 C-1.33 12.66 -1.66 13.32 -2 14 C-2.33 13.01 -2.66 12.02 -3 11 C-7.455 11.495 -7.455 11.495 -12 12 C-12 11.34 -12 10.68 -12 10 C-11.34 10 -10.68 10 -10 10 C-10 8.02 -10 6.04 -10 4 C-9.01 3.67 -8.02 3.34 -7 3 C-6.34 3.66 -5.68 4.32 -5 5 C-4.34 5.33 -3.68 5.66 -3 6 C-2.690625 5.38125 -2.38125 4.7625 -2.0625 4.125 C-1.375 2.75 -0.6875 1.375 0 0 Z " fill="#A4C2CB" transform="translate(254,370)"/>
<path d="M0 0 C0 2.64 0 5.28 0 8 C-4.95 8 -9.9 8 -15 8 C-14.67 6.35 -14.34 4.7 -14 3 C-12.35 3 -10.7 3 -9 3 C-8.67 2.34 -8.34 1.68 -8 1 C-2.4 0 -2.4 0 0 0 Z " fill="#33788C" transform="translate(243,125)"/>
<path d="M0 0 C4.2829452 0.5479083 6.85135641 2.02432804 10.3125 4.5625 C11.19550781 5.20316406 12.07851563 5.84382812 12.98828125 6.50390625 C13.65214844 6.99761719 14.31601562 7.49132812 15 8 C14.34 8.66 13.68 9.32 13 10 C12.01 9.67 11.02 9.34 10 9 C9.67 10.98 9.34 12.96 9 15 C6.8541558 12.17753826 4.80070866 9.310676 2.8125 6.375 C2.01779297 5.21097656 2.01779297 5.21097656 1.20703125 4.0234375 C0 2 0 2 0 0 Z " fill="#7495A0" transform="translate(275,149)"/>
<path d="M0 0 C0.66 0.33 1.32 0.66 2 1 C1.4740625 2.3921875 1.4740625 2.3921875 0.9375 3.8125 C-0.32382628 6.9802953 -0.32382628 6.9802953 1 10 C0.01 10 -0.98 10 -2 10 C-2.66 11.65 -3.32 13.3 -4 15 C-9.94 13.515 -9.94 13.515 -16 12 C-12.66203244 11.16550811 -9.39305036 10.53980347 -6 10 C-5.34 7.03 -4.68 4.06 -4 1 C-3.67 1.99 -3.34 2.98 -3 4 C-2.01 4 -1.02 4 0 4 C0 2.68 0 1.36 0 0 Z " fill="#5C8898" transform="translate(215,160)"/>
<path d="M0 0 C1.32 0 2.64 0 4 0 C3.45776686 6.23568111 1.44588437 11.24033681 -1 17 C-6.28 16.67 -11.56 16.34 -17 16 C-17 15.67 -17 15.34 -17 15 C-14.03 15 -11.06 15 -8 15 C-7.67 14.34 -7.34 13.68 -7 13 C-6.34 12.690625 -5.68 12.38125 -5 12.0625 C-2.65391779 11.1108154 -2.65391779 11.1108154 -2 8 C-1.34 8 -0.68 8 0 8 C0.144375 7.38125 0.28875 6.7625 0.4375 6.125 C1 4 1 4 2 2 C1.34 2 0.68 2 0 2 C0 1.34 0 0.68 0 0 Z " fill="#66808A" transform="translate(203,183)"/>
<path d="M0 0 C2.38224928 2.38224928 2.32017149 3.0502037 2.375 6.3125 C2.30262955 10.85012731 0.91505932 12.53836706 -2 16 C-2.33465889 19.70940775 -2.33465889 19.70940775 -2 23 C-3.32 23 -4.64 23 -6 23 C-5.46467627 14.97014409 -3.62096701 7.24193402 0 0 Z " fill="#4E6E7C" transform="translate(220,177)"/>
<path d="M0 0 C2.7804657 1.39023285 4.15014823 2.44848032 6 5 C6.624163 7.99185571 6.86964578 10.94971133 7 14 C6.34 13.67 5.68 13.34 5 13 C4.375 10.4375 4.375 10.4375 4 8 C1.64632287 7.3121764 1.64632287 7.3121764 -1 7 C-4.22404978 8.66954819 -4.22404978 8.66954819 -4.6875 11.625 C-4.790625 12.40875 -4.89375 13.1925 -5 14 C-5.33 14 -5.66 14 -6 14 C-6 11.69 -6 9.38 -6 7 C-5.34 7 -4.68 7 -4 7 C-4 6.34 -4 5.68 -4 5 C-4.66 4.67 -5.32 4.34 -6 4 C-2.60606061 0 -2.60606061 0 0 0 Z " fill="#436270" transform="translate(143,216)"/>
<path d="M0 0 C0.66 0 1.32 0 2 0 C2.268125 0.969375 2.53625 1.93875 2.8125 2.9375 C3.204375 3.948125 3.59625 4.95875 4 6 C4.99 6.33 5.98 6.66 7 7 C7 8.65 7 10.3 7 12 C5.35 12 3.7 12 2 12 C2.33 11.34 2.66 10.68 3 10 C1.02 10 -0.96 10 -3 10 C-3.66 8.68 -4.32 7.36 -5 6 C-4.01 5.34 -3.02 4.68 -2 4 C-2 3.34 -2 2.68 -2 2 C-1.34 2 -0.68 2 0 2 C0 1.34 0 0.68 0 0 Z " fill="#1E4B5C" transform="translate(169,184)"/>
<path d="M0 0 C2.91697011 0.14104691 5.8334802 0.28764814 8.75 0.4375 C9.9875 0.49647461 9.9875 0.49647461 11.25 0.55664062 C12.44882813 0.61948242 12.44882813 0.61948242 13.671875 0.68359375 C14.4050293 0.72025146 15.13818359 0.75690918 15.89355469 0.79467773 C18 1 18 1 22 2 C21.01 8.6 20.02 15.2 19 22 C18.67 22 18.34 22 18 22 C17.61936779 19.6739143 17.28730055 17.33944736 17 15 C17.33 14.67 17.66 14.34 18 14 C18.04092937 11.66702567 18.04241723 9.33294775 18 7 C18.66 7 19.32 7 20 7 C19.13551642 4.74426056 19.13551642 4.74426056 16.5 3.875 C12.23168821 2.80792205 8.36799043 2.85024033 4 3 C3.01 3 2.02 3 1 3 C0.67 2.01 0.34 1.02 0 0 Z " fill="#7F949D" transform="translate(178,208)"/>
<path d="M0 0 C0.8971875 0.309375 0.8971875 0.309375 1.8125 0.625 C0.8225 2.11 0.8225 2.11 -0.1875 3.625 C-0.88914642 5.61299818 -1.56122872 7.61198517 -2.1875 9.625 C-2.93 9.728125 -3.6725 9.83125 -4.4375 9.9375 C-7.35764018 10.66753504 -8.91937554 11.69289398 -11.1875 13.625 C-9.73163231 8.52946309 -6.71465343 -1.15108345 0 0 Z " fill="#2A6A83" transform="translate(238.1875,150.375)"/>
<path d="M0 0 C-0.433125 1.051875 -0.433125 1.051875 -0.875 2.125 C-2.0628193 5.03060307 -2.0628193 5.03060307 -2.9375 8.25 C-3.288125 9.1575 -3.63875 10.065 -4 11 C-4.99 11.33 -5.98 11.66 -7 12 C-7.33 10.35 -7.66 8.7 -8 7 C-8.9075 7.45375 -9.815 7.9075 -10.75 8.375 C-13.16666667 9.58333333 -15.58333333 10.79166667 -18 12 C-15.08479328 7.92293553 -12.22869317 5.64246949 -7.875 3.1875 C-6.82054687 2.58292969 -5.76609375 1.97835937 -4.6796875 1.35546875 C-2 0 -2 0 0 0 Z " fill="#7DA2AF" transform="translate(224,149)"/>
<path d="M0 0 C0.8971875 0.309375 0.8971875 0.309375 1.8125 0.625 C1.1628125 1.34816406 1.1628125 1.34816406 0.5 2.0859375 C-0.056875 2.71757812 -0.61375 3.34921875 -1.1875 4 C-1.744375 4.62648437 -2.30125 5.25296875 -2.875 5.8984375 C-4.38922487 7.52889833 -4.38922487 7.52889833 -4.1875 9.625 C-4.8475 9.625 -5.5075 9.625 -6.1875 9.625 C-6.1875 10.285 -6.1875 10.945 -6.1875 11.625 C-6.8475 11.625 -7.5075 11.625 -8.1875 11.625 C-8.1875 12.285 -8.1875 12.945 -8.1875 13.625 C-8.8475 13.295 -9.5075 12.965 -10.1875 12.625 C-10.1875 11.305 -10.1875 9.985 -10.1875 8.625 C-10.8475 8.625 -11.5075 8.625 -12.1875 8.625 C-12.1875 7.965 -12.1875 7.305 -12.1875 6.625 C-11.011875 6.50125 -11.011875 6.50125 -9.8125 6.375 C-7.05693709 5.91590262 -7.05693709 5.91590262 -6.0625 3.6875 C-5.77375 3.006875 -5.485 2.32625 -5.1875 1.625 C-2.1875 -0.375 -2.1875 -0.375 0 0 Z " fill="#7AA0AD" transform="translate(204.1875,148.375)"/>
<path d="M0 0 C2.4375 1.1875 2.4375 1.1875 3.4375 3.1875 C5.4175 3.1875 7.3975 3.1875 9.4375 3.1875 C9.4375 2.1975 9.4375 1.2075 9.4375 0.1875 C10.0975 0.1875 10.7575 0.1875 11.4375 0.1875 C12 2.125 12 2.125 12.4375 4.1875 C10.07972417 6.54527583 5.37952777 6.16124139 2.1953125 6.25 C0.2759286 6.25 -1.64341141 6.22116822 -3.5625 6.1875 C-3.8925 4.2075 -4.2225 2.2275 -4.5625 0.1875 C-2.5625 -0.8125 -2.5625 -0.8125 0 0 Z " fill="#1E4654" transform="translate(301.5625,192.8125)"/>
<path d="M0 0 C1.32 0.33 2.64 0.66 4 1 C3.67 3.31 3.34 5.62 3 8 C-2.41538462 10.21538462 -2.41538462 10.21538462 -5.375 9.125 C-5.91125 8.75375 -6.4475 8.3825 -7 8 C-6.34 8 -5.68 8 -5 8 C-4.71125 7.195625 -4.4225 6.39125 -4.125 5.5625 C-3 3 -3 3 -1 2 C-0.67 1.34 -0.34 0.68 0 0 Z " fill="#276177" transform="translate(206,162)"/>
<path d="M0 0 C2.5 0.3125 2.5 0.3125 5 1 C5.33 1.66 5.66 2.32 6 3 C6.99 3.66 7.98 4.32 9 5 C7.71034824 6.37562854 6.37310707 7.70766393 5 9 C4.34 9 3.68 9 3 9 C2.67 10.32 2.34 11.64 2 13 C1.67 10.69 1.34 8.38 1 6 C-0.32 6.33 -1.64 6.66 -3 7 C-3 6.34 -3 5.68 -3 5 C-2.01 5 -1.02 5 0 5 C-0.2784375 4.0409375 -0.2784375 4.0409375 -0.5625 3.0625 C-0.706875 2.381875 -0.85125 1.70125 -1 1 C-0.67 0.67 -0.34 0.34 0 0 Z " fill="#2F6078" transform="translate(167,170)"/>
<path d="M0 0 C1.9375 0.75 1.9375 0.75 4 2 C4.62890625 4.078125 4.62890625 4.078125 5 6 C4.30132812 6.27714844 3.60265625 6.55429688 2.8828125 6.83984375 C1.97273438 7.20207031 1.06265625 7.56429687 0.125 7.9375 C-0.77992188 8.29714844 -1.68484375 8.65679687 -2.6171875 9.02734375 C-4.96137667 9.94901262 -4.96137667 9.94901262 -7 11 C-8.99960012 11.039992 -11.00047242 11.04346799 -13 11 C-12.67 10.01 -12.34 9.02 -12 8 C-9.36 7.67 -6.72 7.34 -4 7 C-4 6.34 -4 5.68 -4 5 C-2.35 5 -0.7 5 1 5 C0.67 3.35 0.34 1.7 0 0 Z " fill="#6D8794" transform="translate(353,183)"/>
<path d="M0 0 C0.74056641 0.00451172 1.48113281 0.00902344 2.24414062 0.01367188 C4.05862899 0.02537825 5.87307534 0.04331102 7.6875 0.0625 C9.27252671 3.23255342 9.29135067 6.55374878 9.6875 10.0625 C8.6975 10.0625 7.7075 10.0625 6.6875 10.0625 C6.6875 7.4225 6.6875 4.7825 6.6875 2.0625 C0.4175 2.0625 -5.8525 2.0625 -12.3125 2.0625 C-12.3125 6.0225 -12.3125 9.9825 -12.3125 14.0625 C-12.9725 13.7325 -13.6325 13.4025 -14.3125 13.0625 C-13.9825 9.1025 -13.6525 5.1425 -13.3125 1.0625 C-8.74463534 0.14892707 -4.61334907 -0.05359566 0 0 Z " fill="#949EA4" transform="translate(317.3125,257.9375)"/>
<path d="M0 0 C1.39136534 0.04232649 2.78256436 0.09034885 4.17358398 0.14282227 C5.27016579 0.17823875 5.27016579 0.17823875 6.38890076 0.21437073 C8.7326823 0.29117936 11.07614756 0.37512882 13.41967773 0.45922852 C15.00494852 0.51243203 16.59023491 0.56517253 18.17553711 0.61743164 C22.06961905 0.74681756 25.96343184 0.88260983 29.85717773 1.02172852 C29.85717773 1.35172852 29.85717773 1.68172852 29.85717773 2.02172852 C20.28717773 2.35172852 10.71717773 2.68172852 0.85717773 3.02172852 C0.52717773 3.68172852 0.19717773 4.34172852 -0.14282227 5.02172852 C-1.46282227 5.02172852 -2.78282227 5.02172852 -4.14282227 5.02172852 C-4.47282227 6.01172852 -4.80282227 7.00172852 -5.14282227 8.02172852 C-4.12550513 0.02852249 -4.12550513 0.02852249 0 0 Z " fill="#889CA7" transform="translate(214.142822265625,209.978271484375)"/>
<path d="M0 0 C4.60853797 0.72008406 8.67237409 2.31295939 13 4 C9.49234531 6.33843646 9.04939628 6.04372484 5 5.875 C1.88286431 5.66576467 1.88286431 5.66576467 0 8 C-0.99 7.34 -1.98 6.68 -3 6 C-2.34 6 -1.68 6 -1 6 C-0.67 4.02 -0.34 2.04 0 0 Z " fill="#476F80" transform="translate(186,177)"/>
<path d="M0 0 C1.2684375 0.12375 1.2684375 0.12375 2.5625 0.25 C4.5625 3.25 4.5625 3.25 4.5625 7.25 C2.22955225 7.29241723 -0.10452567 7.29092937 -2.4375 7.25 C-3.4375 6.25 -3.4375 6.25 -3.5625 3.75 C-3.39590427 0.41808548 -3.30551904 0.33902759 0 0 Z " fill="#42606E" transform="translate(266.4375,316.75)"/>
<path d="M0 0 C1.98 0 3.96 0 6 0 C6.12375 0.639375 6.2475 1.27875 6.375 1.9375 C6.684375 2.9584375 6.684375 2.9584375 7 4 C7.66 4.33 8.32 4.66 9 5 C7.02 6.32 5.04 7.64 3 9 C2.67 8.34 2.34 7.68 2 7 C1.01 6.67 0.02 6.34 -1 6 C-0.67 4.02 -0.34 2.04 0 0 Z " fill="#346A7D" transform="translate(285,158)"/>
<path d="M0 0 C2 3 2 3 2 4 C2.33 4.99 2.66 5.98 3 7 C2.67 7.66 2.34 8.32 2 9 C1.34 9 0.68 9 0 9 C0 9.99 0 10.98 0 12 C-0.66 12 -1.32 12 -2 12 C-2.33 12.66 -2.66 13.32 -3 14 C-3.08082094 12.04233719 -3.13910778 10.08373272 -3.1875 8.125 C-3.22230469 7.03445312 -3.25710938 5.94390625 -3.29296875 4.8203125 C-3.19628906 3.88960937 -3.09960938 2.95890625 -3 2 C-2.01 1.34 -1.02 0.68 0 0 Z " fill="#25566A" transform="translate(260,178)"/>
<path d="M0 0 C0.99 0.66 1.98 1.32 3 2 C1.68 2.99 0.36 3.98 -1 5 C-0.67 5.66 -0.34 6.32 0 7 C-0.33 7.66 -0.66 8.32 -1 9 C-3.31 9 -5.62 9 -8 9 C-7.34 6.36 -6.68 3.72 -6 1 C-4.35 1.33 -2.7 1.66 -1 2 C-0.67 1.34 -0.34 0.68 0 0 Z " fill="#22546B" transform="translate(229,176)"/>
<path d="M0 0 C2.97 0.99 5.94 1.98 9 3 C9 3.33 9 3.66 9 4 C7.88625 4.28875 6.7725 4.5775 5.625 4.875 C1.99708908 5.69241329 1.99708908 5.69241329 0 8 C-0.64767793 10.57061311 -0.64767793 10.57061311 -1 13 C-1.33 13 -1.66 13 -2 13 C-2.2493357 11.39884424 -2.47378648 9.79379841 -2.6875 8.1875 C-2.81511719 7.29417969 -2.94273437 6.40085937 -3.07421875 5.48046875 C-3 3 -3 3 0 0 Z " fill="#6A8C98" transform="translate(167,267)"/>
<path d="M0 0 C0.58203125 1.890625 0.58203125 1.890625 1 4 C-0.3125 5.75 -0.3125 5.75 -2 7 C-2.66 7 -3.32 7 -4 7 C-3.34 8.65 -2.68 10.3 -2 12 C-0.35 12 1.3 12 3 12 C3.33 12.99 3.66 13.98 4 15 C-0.05606165 14.53199289 -3.46588679 14.12046792 -7 12 C-6.38801624 8.56049636 -5.07941153 6.48435515 -2.9375 3.75 C-2.38964844 3.04359375 -1.84179688 2.3371875 -1.27734375 1.609375 C-0.85582031 1.07828125 -0.43429688 0.5471875 0 0 Z " fill="#67858F" transform="translate(149,177)"/>
<path d="M0 0 C1.32 0 2.64 0 4 0 C4 0.66 4 1.32 4 2 C4.66 2 5.32 2 6 2 C5.67 3.65 5.34 5.3 5 7 C3.02 7 1.04 7 -1 7 C-1.625 4.625 -1.625 4.625 -2 2 C-1.34 1.34 -0.68 0.68 0 0 Z " fill="#446876" transform="translate(230,317)"/>
<path d="M0 0 C-1 3 -1 3 -3 4 C-2.67 6.31 -2.34 8.62 -2 11 C-7.75 12.125 -7.75 12.125 -10 11 C-8.73396788 6.69549079 -5.08358566 0 0 0 Z " fill="#557E91" transform="translate(164,161)"/>
<path d="M0 0 C1.65 0 3.3 0 5 0 C4.67 0.66 4.34 1.32 4 2 C4.28112064 4.00800456 4.61067967 6.01014051 5 8 C2.69 8 0.38 8 -2 8 C-2 6.02 -2 4.04 -2 2 C-1.34 2 -0.68 2 0 2 C0 1.34 0 0.68 0 0 Z " fill="#356D7D" transform="translate(337,121)"/>
<path d="M0 0 C1.04929688 -0.01417969 2.09859375 -0.02835937 3.1796875 -0.04296875 C6.06047071 0.18245063 7.68740208 0.69785683 10.125 2.1875 C6.55149959 3.00648622 3.26840521 3.30561958 -0.39453125 3.28515625 C-1.41611328 3.28193359 -2.43769531 3.27871094 -3.49023438 3.27539062 C-4.54533203 3.26701172 -5.60042969 3.25863281 -6.6875 3.25 C-7.76193359 3.24548828 -8.83636719 3.24097656 -9.94335938 3.23632812 C-12.58729683 3.22457729 -15.23111952 3.20814787 -17.875 3.1875 C-17.875 2.8575 -17.875 2.5275 -17.875 2.1875 C-16.82699219 2.09662109 -16.82699219 2.09662109 -15.7578125 2.00390625 C-14.84773437 1.92011719 -13.93765625 1.83632813 -13 1.75 C-12.09507812 1.66878906 -11.19015625 1.58757812 -10.2578125 1.50390625 C-6.59559687 1.01761204 -3.86337589 0.02361477 0 0 Z " fill="#F3FAFC" transform="translate(225.875,377.8125)"/>
<path d="M0 0 C4.52615993 3.67832017 8.39424999 7.41086363 12 12 C11.67 12.66 11.34 13.32 11 14 C7.125 12.25 7.125 12.25 6 10 C5.01 9.67 4.02 9.34 3 9 C2.9175 8.21625 2.835 7.4325 2.75 6.625 C2.27193661 3.85250896 2.27193661 3.85250896 -0.0625 2.6875 C-0.701875 2.460625 -1.34125 2.23375 -2 2 C-1.34 1.34 -0.68 0.68 0 0 Z " fill="#718E9A" transform="translate(336,161)"/>
<path d="M0 0 C0.66 0.33 1.32 0.66 2 1 C1.6875 2.9375 1.6875 2.9375 1 5 C0.01 5.33 -0.98 5.66 -2 6 C-2 6.66 -2 7.32 -2 8 C-1.34 7.34 -0.68 6.68 0 6 C0.33 6.99 0.66 7.98 1 9 C0.01 9.99 -0.98 10.98 -2 12 C-3.65 11.01 -5.3 10.02 -7 9 C-6.82374165 6.62051228 -6.30280227 5.29774151 -4.59765625 3.62109375 C-3.09350908 2.37884514 -1.54870149 1.18623944 0 0 Z " fill="#678E99" transform="translate(179,147)"/>
<path d="M0 0 C1.9375 0.8125 1.9375 0.8125 4 2 C5 5 5 5 4.0625 7.1875 C3.711875 7.785625 3.36125 8.38375 3 9 C0.5625 8.625 0.5625 8.625 -2 8 C-2.33 7.34 -2.66 6.68 -3 6 C-5.01669827 4.86649466 -5.01669827 4.86649466 -7 4 C-4.69 3.34 -2.38 2.68 0 2 C0 1.34 0 0.68 0 0 Z " fill="#2F7286" transform="translate(299,142)"/>
<path d="M0 0 C3.3 0 6.6 0 10 0 C10 0.66 10 1.32 10 2 C14.62 2 19.24 2 24 2 C24 2.33 24 2.66 24 3 C14.76 3 5.52 3 -4 3 C-3.67 2.34 -3.34 1.68 -3 1 C-2.01 1.33 -1.02 1.66 0 2 C0 1.34 0 0.68 0 0 Z " fill="#EFF6F9" transform="translate(267,378)"/>
<path d="M0 0 C1.66611905 -0.042721 3.33382885 -0.04063832 5 0 C6 1 6 1 6.09765625 3.06640625 C6.08605469 3.89011719 6.07445312 4.71382813 6.0625 5.5625 C6.05347656 6.38878906 6.04445312 7.21507812 6.03515625 8.06640625 C6.01775391 9.02353516 6.01775391 9.02353516 6 10 C4.35 9.67 2.7 9.34 1 9 C1 8.01 1 7.02 1 6 C1.66 5.67 2.32 5.34 3 5 C3 4.34 3 3.68 3 3 C1.68 2.67 0.36 2.34 -1 2 C-0.67 1.34 -0.34 0.68 0 0 Z " fill="#3E6778" transform="translate(169,260)"/>
<path d="M0 0 C5.61 0 11.22 0 17 0 C17.33 1.32 17.66 2.64 18 4 C16.68 3.67 15.36 3.34 14 3 C14.33 5.31 14.66 7.62 15 10 C14.01 10.495 14.01 10.495 13 11 C11.875 4.25 11.875 4.25 13 2 C8.71 1.67 4.42 1.34 0 1 C0 0.67 0 0.34 0 0 Z " fill="#BAD0D7" transform="translate(123,248)"/>
<path d="M0 0 C5.28 1.65 10.56 3.3 16 5 C16 5.33 16 5.66 16 6 C14.906875 6.12375 13.81375 6.2475 12.6875 6.375 C8.92618198 6.75464801 8.92618198 6.75464801 6 9 C5.67 8.01 5.34 7.02 5 6 C4.34 5.67 3.68 5.34 3 5 C3 4.01 3 3.02 3 2 C1.68 2.33 0.36 2.66 -1 3 C-0.67 2.01 -0.34 1.02 0 0 Z " fill="#647D89" transform="translate(136,197)"/>
<path d="M0 0 C0.33 0 0.66 0 1 0 C1 3.3 1 6.6 1 10 C-6.59 10 -14.18 10 -22 10 C-21.67 9.34 -21.34 8.68 -21 8 C-20.42967041 8.00523682 -19.85934082 8.01047363 -19.27172852 8.01586914 C-16.70199677 8.03658221 -14.13228253 8.0496419 -11.5625 8.0625 C-10.66466797 8.07087891 -9.76683594 8.07925781 -8.84179688 8.08789062 C-7.56079102 8.09272461 -7.56079102 8.09272461 -6.25390625 8.09765625 C-5.46314697 8.10289307 -4.6723877 8.10812988 -3.85766602 8.11352539 C-1.98407311 8.20495909 -1.98407311 8.20495909 -1 7 C-0.63239269 4.67182036 -0.29758419 2.3381615 0 0 Z " fill="#274D5B" transform="translate(242,190)"/>
<path d="M0 0 C0.33 1.32 0.66 2.64 1 4 C1.66 4 2.32 4 3 4 C3 4.99 3 5.98 3 7 C-0.28696233 7.79953138 -1.71023192 8.09658936 -5 7 C-5.1875 4.625 -5.1875 4.625 -5 2 C-2 0 -2 0 0 0 Z " fill="#4C7C88" transform="translate(161,123)"/>
<path d="M0 0 C2.31 0.66 4.62 1.32 7 2 C6.01 4.64 5.02 7.28 4 10 C2.35 10 0.7 10 -1 10 C-0.67 6.7 -0.34 3.4 0 0 Z " fill="#7FA3AB" transform="translate(284,323)"/>
<path d="M0 0 C3.39417765 3.12621626 5.6062718 5.56541027 7 10 C5.02 10.66 3.04 11.32 1 12 C-0.26237731 9.47524538 -0.09856404 7.68799534 -0.0625 4.875 C-0.05347656 3.96492187 -0.04445313 3.05484375 -0.03515625 2.1171875 C-0.02355469 1.41851562 -0.01195312 0.71984375 0 0 Z " fill="#477A8E" transform="translate(257,140)"/>
<path d="M0 0 C0.33 0.66 0.66 1.32 1 2 C1.99 2.66 2.98 3.32 4 4 C4.33 4.99 4.66 5.98 5 7 C4.67 7.66 4.34 8.32 4 9 C3.34 9 2.68 9 2 9 C2 9.66 2 10.32 2 11 C0.68 11.33 -0.64 11.66 -2 12 C-1.649375 11.21625 -1.29875 10.4325 -0.9375 9.625 C-0.628125 8.75875 -0.31875 7.8925 0 7 C-0.33 6.34 -0.66 5.68 -1 5 C-3.52733235 4.34444881 -3.52733235 4.34444881 -6 4 C-6 3.67 -6 3.34 -6 3 C-4.35 3 -2.7 3 -1 3 C-0.67 2.01 -0.34 1.02 0 0 Z " fill="#547784" transform="translate(338,174)"/>
<path d="M0 0 C1.65 0.33 3.3 0.66 5 1 C4.525625 1.7425 4.05125 2.485 3.5625 3.25 C2.22130673 5.61050015 1.487688 7.36648477 1 10 C-0.32 8.68 -1.64 7.36 -3 6 C-3.66 6.66 -4.32 7.32 -5 8 C-4.67 6.35 -4.34 4.7 -4 3 C-3.01 2.67 -2.02 2.34 -1 2 C-0.67 1.34 -0.34 0.68 0 0 Z " fill="#29647A" transform="translate(181,149)"/>
<path d="M0 0 C0.99 0.33 1.98 0.66 3 1 C2.67 2.32 2.34 3.64 2 5 C-1.98196457 6.05404945 -4.98195309 5.84098656 -9 5 C-9.33 3.68 -9.66 2.36 -10 1 C-7.03 1.33 -4.06 1.66 -1 2 C-0.67 1.34 -0.34 0.68 0 0 Z " fill="#192C37" transform="translate(227,280)"/>
<path d="M0 0 C3.63 0 7.26 0 11 0 C13 4 13 4 12.125 7.75 C11.75375 8.8225 11.3825 9.895 11 11 C10.67 11 10.34 11 10 11 C9.34 8.69 8.68 6.38 8 4 C6.824375 3.7834375 6.824375 3.7834375 5.625 3.5625 C3 3 3 3 1 2 C0.67 1.34 0.34 0.68 0 0 Z " fill="#687F8B" transform="translate(351,220)"/>
<path d="M0 0 C2 3 2 3 1.42578125 5.8828125 C1.05839844 6.95273438 0.69101563 8.02265625 0.3125 9.125 C-0.04199219 10.20007813 -0.39648438 11.27515625 -0.76171875 12.3828125 C-1.37466797 13.67832031 -1.37466797 13.67832031 -2 15 C-2.99 15.33 -3.98 15.66 -5 16 C-3.90301833 10.30860098 -2.45946923 5.25432063 0 0 Z " fill="#4D6774" transform="translate(134,200)"/>
<path d="M0 0 C0.33 1.65 0.66 3.3 1 5 C-0.32 5.33 -1.64 5.66 -3 6 C-3 4.68 -3 3.36 -3 2 C-5.64 2 -8.28 2 -11 2 C-6.80312837 -0.79791442 -4.79748656 -1.16695619 0 0 Z M-6 2 C-5.67 2.99 -5.34 3.98 -5 5 C-5.99 4.67 -6.98 4.34 -8 4 C-7.34 3.34 -6.68 2.68 -6 2 Z " fill="#587582" transform="translate(365,199)"/>
<path d="M0 0 C2 1 2 1 2 1 Z M-12 1 C-8 1 -4 1 0 1 C-0.33 2.32 -0.66 3.64 -1 5 C-1.93972656 4.98259766 -1.93972656 4.98259766 -2.8984375 4.96484375 C-4.12433594 4.95130859 -4.12433594 4.95130859 -5.375 4.9375 C-6.59316406 4.92009766 -6.59316406 4.92009766 -7.8359375 4.90234375 C-10.04937142 4.85533666 -10.04937142 4.85533666 -12 6 C-12.33 5.01 -12.66 4.02 -13 3 C-12.67 2.34 -12.34 1.68 -12 1 Z " fill="#576F7C" transform="translate(333,218)"/>
<path d="M0 0 C4.11583349 3.50608038 6.90567018 8.04628837 9 13 C8.67 13.66 8.34 14.32 8 15 C4.57167626 12.71445084 4.41098989 11.70384847 3 8 C2.195625 6.9790625 2.195625 6.9790625 1.375 5.9375 C0 4 0 4 0 0 Z " fill="#759BA7" transform="translate(264,150)"/>
<path d="M0 0 C0.66 0 1.32 0 2 0 C2 1.32 2 2.64 2 4 C-6.25 4 -14.5 4 -23 4 C-23 3.67 -23 3.34 -23 3 C-15.74 2.67 -8.48 2.34 -1 2 C-0.67 1.34 -0.34 0.68 0 0 Z " fill="#223742" transform="translate(374,244)"/>
<path d="M0 0 C0.556875 0.350625 1.11375 0.70125 1.6875 1.0625 C4.57159181 2.23172641 6.05190765 1.85339516 9 1 C9.66 0.67 10.32 0.34 11 0 C10.8125 1.875 10.8125 1.875 10 4 C7.45503845 5.44443764 5.74243423 6.04242481 2.8125 5.875 C0.42270493 4.72130583 -0.06163214 3.42411698 -1 1 C-0.67 0.67 -0.34 0.34 0 0 Z " fill="#4C636E" transform="translate(138,231)"/>
<path d="M0 0 C3.19816368 1.06605456 4.04028638 1.83657714 6.1875 4.3125 C6.71730469 4.90675781 7.24710937 5.50101563 7.79296875 6.11328125 C9 8 9 8 9 12 C7 11 7 11 6 8 C3.69 7.67 1.38 7.34 -1 7 C-0.67 4.69 -0.34 2.38 0 0 Z " fill="#7294A0" transform="translate(292,160)"/>
<path d="M0 0 C0.99 0 1.98 0 3 0 C1.60344703 3.49873271 0.28739516 4.70891831 -3.125 6.25 C-4.21167969 6.75273437 -4.21167969 6.75273437 -5.3203125 7.265625 C-6.15175781 7.62914062 -6.15175781 7.62914062 -7 8 C-7.66 6.68 -8.32 5.36 -9 4 C-7.88625 3.71125 -6.7725 3.4225 -5.625 3.125 C-1.99708908 2.30758671 -1.99708908 2.30758671 0 0 Z " fill="#6D929C" transform="translate(317,159)"/>
<path d="M0 0 C5.94 3.465 5.94 3.465 12 7 C7.59232396 8.10191901 6.1077065 7.58706842 2 6 C2 5.34 2 4.68 2 4 C1.34 4 0.68 4 0 4 C0 2.68 0 1.36 0 0 Z " fill="#5C7F8F" transform="translate(170,167)"/>
<path d="M0 0 C5.76044212 0.60636233 10.72014369 2.75658279 16 5 C16 5.33 16 5.66 16 6 C10.93437617 6.25328119 6.84241633 5.33583899 2 4 C2 3.01 2 2.02 2 1 C1.34 0.67 0.68 0.34 0 0 Z " fill="#7CA3AF" transform="translate(286,131)"/>
<path d="M0 0 C2.4375 0.375 2.4375 0.375 5 1 C5.33 1.66 5.66 2.32 6 3 C6.99 3.33 7.98 3.66 9 4 C5.77208445 6.1519437 4.71599191 6.20086443 1 6 C0.67 4.02 0.34 2.04 0 0 Z " fill="#275F72" transform="translate(307,157)"/>
<path d="M0 0 C2.475 0.495 2.475 0.495 5 1 C5 1.66 5 2.32 5 3 C6.65 3.33 8.3 3.66 10 4 C10 4.99 10 5.98 10 7 C10.66 7.33 11.32 7.66 12 8 C11.34 8.66 10.68 9.32 10 10 C8.33037631 8.52417192 6.6643694 7.04425109 5 5.5625 C4.071875 4.73878906 3.14375 3.91507813 2.1875 3.06640625 C1.465625 2.38449219 0.74375 1.70257813 0 1 C0 0.67 0 0.34 0 0 Z " fill="#6D97A3" transform="translate(292,147)"/>
<path d="M0 0 C0.66 0 1.32 0 2 0 C2.84888195 5.37625234 3.0024305 9.65370398 2 15 C1.67 13.68 1.34 12.36 1 11 C0.34 11 -0.32 11 -1 11 C-0.67 7.37 -0.34 3.74 0 0 Z " fill="#435762" transform="translate(291,228)"/>
<path d="M0 0 C1.41750563 0.11509661 2.83401169 0.24253658 4.25 0.375 C5.03890625 0.44460937 5.8278125 0.51421875 6.640625 0.5859375 C9.085877 1.01507113 10.84836903 1.78600638 13 3 C5.68722467 5.1938326 5.68722467 5.1938326 2.5625 4.3125 C1 3 1 3 0 0 Z " fill="#5B7482" transform="translate(152,203)"/>
<path d="M0 0 C2.98704569 0.49784095 4.39324263 1.26216175 7 3 C2.25 7 2.25 7 0 7 C-0.38133299 5.0085944 -0.71325582 3.00720923 -1 1 C-0.67 0.67 -0.34 0.34 0 0 Z " fill="#4A5861" transform="translate(317,353)"/>
<path d="M0 0 C0.33 0.66 0.66 1.32 1 2 C0.05125 2.309375 -0.8975 2.61875 -1.875 2.9375 C-4.86080408 3.87394742 -4.86080408 3.87394742 -7 5 C-8.65 3.68 -10.3 2.36 -12 1 C-3.61572052 -1.37554585 -3.61572052 -1.37554585 0 0 Z " fill="#557381" transform="translate(354,202)"/>
<path d="M0 0 C0.66 0 1.32 0 2 0 C2 1.32 2 2.64 2 4 C4.64 4 7.28 4 10 4 C10 4.33 10 4.66 10 5 C3.93303301 5.77040851 -1.88514973 6.09706112 -8 6 C-8 5.67 -8 5.34 -8 5 C-4.535 4.505 -4.535 4.505 -1 4 C-1 3.01 -1 2.02 -1 1 C-0.67 0.67 -0.34 0.34 0 0 Z " fill="#7894A1" transform="translate(314,193)"/>
<path d="M0 0 C0 0.66 0 1.32 0 2 C-0.598125 2.268125 -1.19625 2.53625 -1.8125 2.8125 C-3.97224808 3.98493467 -5.35790256 5.19369282 -7 7 C-7.66 6.01 -8.32 5.02 -9 4 C-8.67 3.01 -8.34 2.02 -8 1 C-5.07175348 0.02391783 -3.04386724 -0.08226668 0 0 Z " fill="#5F757F" transform="translate(301,182)"/>
<path d="M0 0 C0.66 0.33 1.32 0.66 2 1 C2 2.65 2 4.3 2 6 C2.99 6 3.98 6 5 6 C4.67 6.66 4.34 7.32 4 8 C1.625 7.8125 1.625 7.8125 -1 7 C-2.3125 4.4375 -2.3125 4.4375 -3 2 C-2.01 1.34 -1.02 0.68 0 0 Z " fill="#285D72" transform="translate(337,164)"/>
<path d="M0 0 C0.66 0.33 1.32 0.66 2 1 C1.649375 1.928125 1.29875 2.85625 0.9375 3.8125 C-0.32382628 6.9802953 -0.32382628 6.9802953 1 10 C0.01 10 -0.98 10 -2 10 C-3.8125 7.75 -3.8125 7.75 -5 5 C-4.1875 2.6875 -4.1875 2.6875 -3 1 C-3 1.99 -3 2.98 -3 4 C-2.01 4 -1.02 4 0 4 C0 2.68 0 1.36 0 0 Z " fill="#6D97A9" transform="translate(215,160)"/>
<path d="M0 0 C0.97631287 3.03741782 1.37693397 5.06254087 0 8 C-3.0625 10.25 -3.0625 10.25 -6 12 C-4.68139111 7.38486888 -2.78644563 3.90102388 0 0 Z " fill="#749AA7" transform="translate(233,152)"/>
<path d="M0 0 C1.68178661 2.52267991 2.90106742 4.81091823 4.125 7.5625 C4.47820312 8.34753906 4.83140625 9.13257813 5.1953125 9.94140625 C6 12 6 12 6 14 C5.01 14 4.02 14 3 14 C1.875 10.25 1.875 10.25 3 8 C2.34 8 1.68 8 1 8 C0.67 5.36 0.34 2.72 0 0 Z " fill="#77939E" transform="translate(275,169)"/>
<path d="M0 0 C1.98 0 3.96 0 6 0 C6 0.66 6 1.32 6 2 C6.66 2 7.32 2 8 2 C8.33 1.34 8.66 0.68 9 0 C9.66 1.98 10.32 3.96 11 6 C6.95743617 4.77782954 3.50711041 3.37245704 0 1 C0 0.67 0 0.34 0 0 Z " fill="#6A737B" transform="translate(185,361)"/>
<path d="M0 0 C2.78637633 4.1795645 1.79562512 6.14668677 1 11 C0.67 11 0.34 11 0 11 C-0.433125 9.6078125 -0.433125 9.6078125 -0.875 8.1875 C-1.8875 4.90208333 -1.8875 4.90208333 -4 2 C-2.68 1.34 -1.36 0.68 0 0 Z " fill="#7898A4" transform="translate(173,333)"/>
<path d="M0 0 C3 2 3 2 4 4 C2 7 2 7 -1 8 C-1.33 5.69 -1.66 3.38 -2 1 C-1.34 0.67 -0.68 0.34 0 0 Z " fill="#697D87" transform="translate(349,222)"/>
<path d="M0 0 C1.89213369 2.38573379 3.02391783 4.07175348 4 7 C3.01 8.485 3.01 8.485 2 10 C1.01 9.67 0.02 9.34 -1 9 C-1.09765625 2.84765625 -1.09765625 2.84765625 -1 1 C-0.67 0.67 -0.34 0.34 0 0 Z " fill="#7EA2AC" transform="translate(223,333)"/>
<path d="M0 0 C2.97 0 5.94 0 9 0 C7.02 0.99 7.02 0.99 5 2 C3.23272142 5.0334467 3.23272142 5.0334467 2 8 C1.67 8 1.34 8 1 8 C0.67 5.36 0.34 2.72 0 0 Z " fill="#202F39" transform="translate(123,260)"/>
<path d="M0 0 C1.11375 0.3403125 1.11375 0.3403125 2.25 0.6875 C2.25 1.6775 2.25 2.6675 2.25 3.6875 C2.91 4.3475 3.57 5.0075 4.25 5.6875 C1.00888653 5.6875 -0.79864638 4.94182529 -3.75 3.6875 C-4.74 3.3575 -5.73 3.0275 -6.75 2.6875 C-4.29511132 0.41445492 -3.41240272 -0.38777304 0 0 Z " fill="#67808A" transform="translate(175.75,218.3125)"/>
<path d="M0 0 C0.99 0.33 1.98 0.66 3 1 C3.6875 3.0625 3.6875 3.0625 4 5 C1.69 5 -0.62 5 -3 5 C-3 4.01 -3 3.02 -3 2 C-2.01 1.34 -1.02 0.68 0 0 Z " fill="#22495D" transform="translate(319,192)"/>
<path d="M0 0 C1.60495567 0.11442461 3.20898119 0.24194694 4.8125 0.375 C5.70582031 0.44460938 6.59914063 0.51421875 7.51953125 0.5859375 C10 1 10 1 13 3 C8.08295331 4.26438344 4.75035002 3.58345001 0 2 C0 1.34 0 0.68 0 0 Z " fill="#D7E4E8" transform="translate(352,386)"/>
<path d="M0 0 C0.33 1.65 0.66 3.3 1 5 C-1.97 4.505 -1.97 4.505 -5 4 C-5.33 3.01 -5.66 2.02 -6 1 C-4 0 -4 0 0 0 Z M-7 4 C-5 5 -5 5 -5 5 Z " fill="#285164" transform="translate(339,189)"/>
<path d="M0 0 C0.33 0 0.66 0 1 0 C1 2.64 1 5.28 1 8 C-0.9375 7.25 -0.9375 7.25 -3 6 C-3.75 3.875 -3.75 3.875 -4 2 C-2.68 2 -1.36 2 0 2 C0 1.34 0 0.68 0 0 Z " fill="#4B737F" transform="translate(228,183)"/>
<path d="M0 0 C1.67542976 0.28604898 3.34385343 0.61781233 5 1 C4.67 1.66 4.34 2.32 4 3 C3.67 3.99 3.34 4.98 3 6 C1.02 6.33 -0.96 6.66 -3 7 C-3 6.34 -3 5.68 -3 5 C-2.01 5 -1.02 5 0 5 C-0.2784375 4.0409375 -0.2784375 4.0409375 -0.5625 3.0625 C-0.706875 2.381875 -0.85125 1.70125 -1 1 C-0.67 0.67 -0.34 0.34 0 0 Z " fill="#22586E" transform="translate(167,170)"/>
<path d="M0 0 C1.32 0.66 2.64 1.32 4 2 C2.73308493 2.67408308 1.46129251 3.33900497 0.1875 4 C-0.52019531 4.37125 -1.22789062 4.7425 -1.95703125 5.125 C-4 6 -4 6 -7 6 C-7 5.01 -7 4.02 -7 3 C-3.535 2.505 -3.535 2.505 0 2 C0 1.34 0 0.68 0 0 Z " fill="#7DAAB7" transform="translate(222,136)"/>
<path d="M0 0 C2.475 0.99 2.475 0.99 5 2 C4.67 3.98 4.34 5.96 4 8 C2.68 7.34 1.36 6.68 0 6 C0 4 0 2 0 0 Z " fill="#1A2A36" transform="translate(323,302)"/>
<path d="M0 0 C0.33 2.97 0.66 5.94 1 9 C0.34 8.67 -0.32 8.34 -1 8 C-1.625 5.4375 -1.625 5.4375 -2 3 C-3.98 2.34 -5.96 1.68 -8 1 C-8 0.67 -8 0.34 -8 0 C-4.71303767 -0.79953138 -3.28976808 -1.09658936 0 0 Z " fill="#8399A5" transform="translate(149,221)"/>
<path d="M0 0 C2.3129482 2.3129482 2.49580975 3.47904875 3.125 6.625 C3.29257812 7.44226563 3.46015625 8.25953125 3.6328125 9.1015625 C3.81457031 10.04128906 3.81457031 10.04128906 4 11 C3.34 11 2.68 11 2 11 C2 10.01 2 9.02 2 8 C1.34 8 0.68 8 0 8 C0 5.36 0 2.72 0 0 Z " fill="#647E8A" transform="translate(366,204)"/>
<path d="M0 0 C0.99 0 1.98 0 3 0 C2.67 1.11375 2.34 2.2275 2 3.375 C0.911357 6.69459717 0.911357 6.69459717 1 9 C-0.98 9.99 -0.98 9.99 -3 11 C-2.69217504 9.35328588 -2.37860766 7.70764424 -2.0625 6.0625 C-1.88847656 5.14597656 -1.71445313 4.22945312 -1.53515625 3.28515625 C-1 1 -1 1 0 0 Z " fill="#254956" transform="translate(136,199)"/>
<path d="M0 0 C0.99 0.66 1.98 1.32 3 2 C2.67 2.66 2.34 3.32 2 4 C1.34 3.67 0.68 3.34 0 3 C0.33 4.32 0.66 5.64 1 7 C-1.475 6.01 -1.475 6.01 -4 5 C-3.67 4.01 -3.34 3.02 -3 2 C-2.01 2 -1.02 2 0 2 C0 1.34 0 0.68 0 0 Z " fill="#416B80" transform="translate(352,180)"/>
<path d="M0 0 C2 3 2 3 1.625 5.1875 C1.41875 5.785625 1.2125 6.38375 1 7 C0.01 7 -0.98 7 -2 7 C-2.33 5.35 -2.66 3.7 -3 2 C-2.01 1.34 -1.02 0.68 0 0 Z " fill="#265D74" transform="translate(163,163)"/>
<path d="M0 0 C0 0.99 0 1.98 0 3 C-0.94875 3.28875 -1.8975 3.5775 -2.875 3.875 C-6.05211578 4.76825109 -6.05211578 4.76825109 -8 7 C-8.66 7 -9.32 7 -10 7 C-9.78515625 5.109375 -9.78515625 5.109375 -9 3 C-6.93359375 1.953125 -6.93359375 1.953125 -4.4375 1.25 C-3.61121094 1.00765625 -2.78492188 0.7653125 -1.93359375 0.515625 C-1.29550781 0.34546875 -0.65742188 0.1753125 0 0 Z " fill="#357481" transform="translate(207,134)"/>
<path d="M0 0 C0.99 0.33 1.98 0.66 3 1 C3 1.66 3 2.32 3 3 C1.1875 4.0625 1.1875 4.0625 -1 5 C-1.99 4.67 -2.98 4.34 -4 4 C-2.68 2.68 -1.36 1.36 0 0 Z M-6 5 C-5.01 5.495 -5.01 5.495 -4 6 C-4.99 6.495 -4.99 6.495 -6 7 C-6 6.34 -6 5.68 -6 5 Z " fill="#192C3A" transform="translate(289,360)"/>
<path d="M0 0 C0.66 0.99 1.32 1.98 2 3 C1.01 4.485 1.01 4.485 0 6 C-1.32 5.67 -2.64 5.34 -4 5 C-4 3.68 -4 2.36 -4 1 C-2.68 0.67 -1.36 0.34 0 0 Z " fill="#192E3B" transform="translate(189,297)"/>
<path d="M0 0 C2.0625 0.4375 2.0625 0.4375 4 1 C3.67 2.65 3.34 4.3 3 6 C2.01 6 1.02 6 0 6 C-0.38218767 4.34385343 -0.71395102 2.67542976 -1 1 C-0.67 0.67 -0.34 0.34 0 0 Z " fill="#3B5A69" transform="translate(165,218)"/>
<path d="M0 0 C3.7952131 1.49097658 5.61042731 3.75700849 8 7 C6.02 7.99 6.02 7.99 4 9 C3.67 7.02 3.34 5.04 3 3 C2.34 3 1.68 3 1 3 C0.67 2.01 0.34 1.02 0 0 Z " fill="#8CAEB3" transform="translate(320,148)"/>
<path d="M0 0 C0.66 0.33 1.32 0.66 2 1 C1.67 2.65 1.34 4.3 1 6 C-1.97 5.505 -1.97 5.505 -5 5 C-3.35 3.35 -1.7 1.7 0 0 Z " fill="#5E8593" transform="translate(328,167)"/>
<path d="M0 0 C2.97 0.99 5.94 1.98 9 3 C9 3.99 9 4.98 9 6 C5.06326356 4.68775452 2.77280706 3.08089673 0 0 Z " fill="#6D939E" transform="translate(178,159)"/>
<path d="M0 0 C-2.31 2.31 -4.62 4.62 -7 7 C-7 4.35220307 -6.82804069 2.48412207 -6 0 C-4 -1 -4 -1 0 0 Z " fill="#90B2BC" transform="translate(206,149)"/>
<path d="M0 0 C-0.66 1.32 -1.32 2.64 -2 4 C-2 3.34 -2 2.68 -2 2 C-3.11375 2.309375 -3.11375 2.309375 -4.25 2.625 C-7.32330841 3.04408751 -8.42786866 2.61949011 -11 1 C-7.32589215 -0.17571451 -3.83070817 -0.07366746 0 0 Z " fill="#75A0AD" transform="translate(235,126)"/>
<path d="M0 0 C0.99 0.33 1.98 0.66 3 1 C2.67 2.65 2.34 4.3 2 6 C0.68 6 -0.64 6 -2 6 C-1.49396008 3.83125748 -1.00016187 2.00032373 0 0 Z " fill="#1C2D39" transform="translate(180,281)"/>
<path d="M0 0 C1 2 2 4 3 6 C1.47899977 7.52100023 -0.27509574 8.72023232 -2 10 C-3.39195915 5.82412255 -1.82323219 3.86525224 0 0 Z " fill="#546A74" transform="translate(180,227)"/>
<path d="M0 0 C0.66 0 1.32 0 2 0 C2 0.66 2 1.32 2 2 C3.32 1.67 4.64 1.34 6 1 C6.33 2.32 6.66 3.64 7 5 C2.545 4.01 2.545 4.01 -2 3 C-1.34 2.01 -0.68 1.02 0 0 Z " fill="#648995" transform="translate(229,179)"/>
<path d="M0 0 C0.99 0.33 1.98 0.66 3 1 C2.67 1.99 2.34 2.98 2 4 C2.99 4.33 3.98 4.66 5 5 C4.34 6.32 3.68 7.64 3 9 C2.01 6.03 1.02 3.06 0 0 Z M3 0 C5 1 5 1 5 1 Z " fill="#7296A0" transform="translate(284,164)"/>
<path d="M0 0 C1.65 0.33 3.3 0.66 5 1 C3.68 2.65 2.36 4.3 1 6 C-0.0625 4.125 -0.0625 4.125 -1 2 C-0.67 1.34 -0.34 0.68 0 0 Z " fill="#276B83" transform="translate(181,149)"/>
<path d="M0 0 C1.65 1.65 3.3 3.3 5 5 C4.67 5.66 4.34 6.32 4 7 C2.68 6.67 1.36 6.34 0 6 C0 4.02 0 2.04 0 0 Z " fill="#6796A5" transform="translate(257,140)"/>
<path d="M0 0 C0.66 0.33 1.32 0.66 2 1 C3.32860925 1.35169068 4.66158328 1.68770276 6 2 C5.67 2.99 5.34 3.98 5 5 C5 4.34 5 3.68 5 3 C1.83884224 4.36983503 1.0072908 4.9890638 -1 8 C-1.125 2.25 -1.125 2.25 0 0 Z " fill="#6B98A2" transform="translate(156,120)"/>
<path d="M0 0 C0.33 0.99 0.66 1.98 1 3 C1.99 3 2.98 3 4 3 C4 3.99 4 4.98 4 6 C2.02 6.33 0.04 6.66 -2 7 C-2 6.34 -2 5.68 -2 5 C-1.34 5 -0.68 5 0 5 C0 3.35 0 1.7 0 0 Z " fill="#ABC6CF" transform="translate(244,375)"/>
<path d="M0 0 C0.99 0.33 1.98 0.66 3 1 C2.1875 2.9375 2.1875 2.9375 1 5 C0.01 5.33 -0.98 5.66 -2 6 C-2 2 -2 2 0 0 Z " fill="#172B36" transform="translate(308,346)"/>
<path d="M0 0 C0.99 0.33 1.98 0.66 3 1 C2.67 1.99 2.34 2.98 2 4 C-0.0625 4.6875 -0.0625 4.6875 -2 5 C-2 3.68 -2 2.36 -2 1 C-1.34 0.67 -0.68 0.34 0 0 Z " fill="#94ADB5" transform="translate(142,312)"/>
<path d="M0 0 C-0.33 0.99 -0.66 1.98 -1 3 C-3.64 2.34 -6.28 1.68 -9 1 C-5.64919071 -1.10976881 -3.77897651 -1.0497157 0 0 Z " fill="#5B6D76" transform="translate(200,210)"/>
<path d="M0 0 C0.66 0.99 1.32 1.98 2 3 C1.3125 5.625 1.3125 5.625 0 8 C-0.99 8.33 -1.98 8.66 -3 9 C-2.01 6.03 -1.02 3.06 0 0 Z " fill="#738B92" transform="translate(134,200)"/>
<path d="M0 0 C0.99 0 1.98 0 3 0 C3 0.99 3 1.98 3 3 C-0.63 3 -4.26 3 -8 3 C-8 2.67 -8 2.34 -8 2 C-6.865625 1.855625 -5.73125 1.71125 -4.5625 1.5625 C-1.19222799 1.38828522 -1.19222799 1.38828522 0 0 Z " fill="#395A66" transform="translate(283,197)"/>
<path d="M0 0 C0 0.66 0 1.32 0 2 C0.66 2.33 1.32 2.66 2 3 C0.741875 3.04125 -0.51625 3.0825 -1.8125 3.125 C-2.52019531 3.14820313 -3.22789062 3.17140625 -3.95703125 3.1953125 C-6 3 -6 3 -9 1 C-2.25 0 -2.25 0 0 0 Z " fill="#5D7C89" transform="translate(162,191)"/>
<path d="M0 0 C0.33 0.66 0.66 1.32 1 2 C1.99 2.66 2.98 3.32 4 4 C2.68 4.99 1.36 5.98 0 7 C-0.33 6.34 -0.66 5.68 -1 5 C-3.52733235 4.34444881 -3.52733235 4.34444881 -6 4 C-6 3.67 -6 3.34 -6 3 C-4.35 3 -2.7 3 -1 3 C-0.67 2.01 -0.34 1.02 0 0 Z " fill="#5B8392" transform="translate(338,174)"/>
<path d="M0 0 C0.99 0.33 1.98 0.66 3 1 C1.515 3.475 1.515 3.475 0 6 C-1.32 5.67 -2.64 5.34 -4 5 C-3.67 4.34 -3.34 3.68 -3 3 C-2.34 3 -1.68 3 -1 3 C-0.67 2.01 -0.34 1.02 0 0 Z " fill="#265364" transform="translate(318,175)"/>
<path d="M0 0 C0 0.99 0 1.98 0 3 C0.3062434 4.33981486 0.63451555 5.67511887 1 7 C0.01 7.33 -0.98 7.66 -2 8 C-2.66 7.67 -3.32 7.34 -4 7 C-2.92598892 4.08482708 -2.22189824 2.22189824 0 0 Z " fill="#7495A1" transform="translate(158,165)"/>
<path d="M0 0 C1.32 0.66 2.64 1.32 4 2 C3.01 2.495 3.01 2.495 2 3 C1.34 2.67 0.68 2.34 0 2 C-0.33 2.99 -0.66 3.98 -1 5 C-2.65 5.33 -4.3 5.66 -6 6 C-4 4 -2 2 0 0 Z " fill="#7C9DA8" transform="translate(299,339)"/>
<path d="M0 0 C0.7425 0.45375 1.485 0.9075 2.25 1.375 C4.46930578 2.68640796 6.67967822 3.88280803 9 5 C6.36 5.33 3.72 5.66 1 6 C0.67 4.02 0.34 2.04 0 0 Z " fill="#6C7A81" transform="translate(166,281)"/>
<path d="M0 0 C1.485 0.99 1.485 0.99 3 2 C2.67 3.98 2.34 5.96 2 8 C0.4375 6.8125 0.4375 6.8125 -1 5 C-0.6875 2.3125 -0.6875 2.3125 0 0 Z " fill="#F1F6F9" transform="translate(331,178)"/>
<path d="M0 0 C0.33 1.32 0.66 2.64 1 4 C-0.98 4.99 -2.96 5.98 -5 7 C-3.75023244 3.34683329 -3.32901247 2.21934164 0 0 Z " fill="#5E8A9C" transform="translate(239,145)"/>
<path d="M0 0 C0.33 0 0.66 0 1 0 C1.125 2.875 1.125 2.875 1 6 C0.34 6.66 -0.32 7.32 -1 8 C-1.66 7.67 -2.32 7.34 -3 7 C-2.38722388 4.03824877 -1.74627478 2.61941217 0 0 Z " fill="#98B7C1" transform="translate(254,370)"/>
<path d="M0 0 C0.66 0.33 1.32 0.66 2 1 C2 1.66 2 2.32 2 3 C-0.5 4.625 -0.5 4.625 -3 6 C-3.33 5.34 -3.66 4.68 -4 4 C-2.68 2.68 -1.36 1.36 0 0 Z " fill="#1B2D39" transform="translate(287,338)"/>
<path d="M0 0 C2 2 2 2 2 6 C1.34 6 0.68 6 0 6 C-0.33 5.34 -0.66 4.68 -1 4 C-1.99 3.34 -2.98 2.68 -4 2 C-2.68 1.34 -1.36 0.68 0 0 Z " fill="#1C2E39" transform="translate(165,281)"/>
<path d="M0 0 C0.66 0 1.32 0 2 0 C2.33 0.99 2.66 1.98 3 3 C2.67 3.66 2.34 4.32 2 5 C0.35 4.67 -1.3 4.34 -3 4 C-2.67 3.01 -2.34 2.02 -2 1 C-1.34 1.33 -0.68 1.66 0 2 C0 1.34 0 0.68 0 0 Z " fill="#173849" transform="translate(228,233)"/>
<path d="M0 0 C0.66 0.33 1.32 0.66 2 1 C1.67 1.99 1.34 2.98 1 4 C1.33 4.99 1.66 5.98 2 7 C0.68 6.34 -0.64 5.68 -2 5 C-2 3.68 -2 2.36 -2 1 C-1.34 0.67 -0.68 0.34 0 0 Z " fill="#1E4B5F" transform="translate(147,183)"/>
<path d="M0 0 C2.31 0.66 4.62 1.32 7 2 C3.77208445 4.1519437 2.71599191 4.20086443 -1 4 C-0.67 2.68 -0.34 1.36 0 0 Z " fill="#2E5A66" transform="translate(289,169)"/>
<path d="M0 0 C0.33 0 0.66 0 1 0 C1 2.64 1 5.28 1 8 C0.67 8 0.34 8 0 8 C0 5.36 0 2.72 0 0 Z " fill="#FFFFFF" transform="translate(245,272)"/>
<path d="M0 0 C0.33 0 0.66 0 1 0 C1 2.31 1 4.62 1 7 C0.67 7 0.34 7 0 7 C0 4.69 0 2.38 0 0 Z " fill="#FFFFFF" transform="translate(245,162)"/>
<path d="" fill="#FFFFFF" transform="translate(0,0)"/>
<path d="" fill="#FFFFFF" transform="translate(0,0)"/>
<path d="" fill="#FFFFFF" transform="translate(0,0)"/>
<path d="M0 0 C2 1 2 1 2 1 Z " fill="#FFFFFF" transform="translate(214,376)"/>
<path d="M0 0 C2 1 2 1 2 1 Z " fill="#FFFFFF" transform="translate(212,375)"/>
<path d="" fill="#FFFFFF" transform="translate(0,0)"/>
<path d="" fill="#FFFFFF" transform="translate(0,0)"/>
<path d="" fill="#FFFFFF" transform="translate(0,0)"/>
<path d="" fill="#FFFFFF" transform="translate(0,0)"/>
<path d="" fill="#FFFFFF" transform="translate(0,0)"/>
<path d="" fill="#FFFFFF" transform="translate(0,0)"/>
<path d="" fill="#FFFFFF" transform="translate(0,0)"/>
<path d="" fill="#FFFFFF" transform="translate(0,0)"/>
<path d="" fill="#FFFFFF" transform="translate(0,0)"/>
<path d="" fill="#FFFFFF" transform="translate(0,0)"/>
<path d="" fill="#FFFFFF" transform="translate(0,0)"/>
<path d="" fill="#FFFFFF" transform="translate(0,0)"/>
<path d="" fill="#FFFFFF" transform="translate(0,0)"/>
<path d="" fill="#FFFFFF" transform="translate(0,0)"/>
<path d="" fill="#FFFFFF" transform="translate(0,0)"/>
<path d="" fill="#FFFFFF" transform="translate(0,0)"/>
<path d="" fill="#FFFFFF" transform="translate(0,0)"/>
<path d="" fill="#FFFFFF" transform="translate(0,0)"/>
<path d="" fill="#FFFFFF" transform="translate(0,0)"/>
<path d="" fill="#FFFFFF" transform="translate(0,0)"/>
<path d="" fill="#FFFFFF" transform="translate(0,0)"/>
<path d="" fill="#FFFFFF" transform="translate(0,0)"/>
<path d="" fill="#FFFFFF" transform="translate(0,0)"/>
<path d="" fill="#FFFFFF" transform="translate(0,0)"/>
<path d="" fill="#FFFFFF" transform="translate(0,0)"/>
<path d="" fill="#FFFFFF" transform="translate(0,0)"/>
<path d="" fill="#FFFFFF" transform="translate(0,0)"/>
<path d="" fill="#FFFFFF" transform="translate(0,0)"/>
<path d="" fill="#FFFFFF" transform="translate(0,0)"/>
<path d="" fill="#FFFFFF" transform="translate(0,0)"/>
<path d="" fill="#FFFFFF" transform="translate(0,0)"/>
<path d="" fill="#FFFFFF" transform="translate(0,0)"/>
<path d="" fill="#FFFFFF" transform="translate(0,0)"/>
</svg>
