<?xml version="1.0" standalone="no"?>
<!DOCTYPE svg PUBLIC "-//W3C//DTD SVG 20010904//EN"
 "http://www.w3.org/TR/2001/REC-SVG-20010904/DTD/svg10.dtd">
<svg version="1.0" xmlns="http://www.w3.org/2000/svg"
 width="200.000000pt" height="200.000000pt" viewBox="0 0 200.000000 200.000000"
 preserveAspectRatio="xMidYMid meet">

<g transform="translate(0.000000,200.000000) scale(0.100000,-0.100000)"
fill="#000000" stroke="none">
<path d="M848 1985 c-81 -14 -177 -42 -193 -56 -5 -5 7 -9 30 -9 65 0 202 -38
290 -79 118 -55 198 -113 295 -211 195 -199 288 -465 259 -746 -10 -97 -45
-228 -81 -297 -11 -22 -17 -41 -14 -44 18 -18 200 75 295 150 75 60 173 179
216 264 56 110 43 271 -38 447 -49 106 -100 179 -190 273 -161 168 -356 270
-588 308 -110 18 -176 18 -281 0z"/>
<path d="M445 1817 c-110 -53 -274 -242 -340 -391 -142 -322 -113 -704 75
-985 54 -79 184 -221 194 -210 2 2 -10 37 -26 78 -45 111 -61 201 -61 336 1
195 52 379 145 523 156 238 414 398 693 427 l69 8 -43 37 c-71 61 -190 127
-291 161 -84 28 -111 33 -230 36 -126 4 -138 3 -185 -20z"/>
</g>
</svg>
